{
  "source": "C:\\Users\\Peter\\Desktop\\stuff\\MIUN\\quantitative_research\\video_compression\\videos\\UVG\\Jockey_1920x1080_120fps_420_8bit_YUV.y4m",
  "output": "C:\\Users\\Peter\\Desktop\\stuff\\MIUN\\quantitative_research\\video_compression\\compressed_videos\\UVG\\hevc\\1.5\\Jockey_1920x1080_120fps_420_8bit_YUV_hevc.mp4",
  "codec": "hevc",
  "ok": "[yuv4mpegpipe @ 000001f35bf06740] Stream #0: not enough frames to estimate rate; consider increasing probesize\nInput #0, yuv4mpegpipe, from 'C:\\Users\\Peter\\Desktop\\stuff\\MIUN\\quantitative_research\\video_compression\\videos\\UVG\\Jockey_1920x1080_120fps_420_8bit_YUV.y4m':\n  Duration: 00:00:05.00, start: 0.000000, bitrate: 2985989 kb/s\n  Stream #0:0: Video: rawvideo (I420 / 0x30323449), yuv420p(progressive), 1920x1080, 120 fps, 120 tbr, 120 tbn\n[out#0/mp4 @ 000001f35bf09a80] Codec AVOption b:a (set bitrate (in bits/s)) has not been used for any stream. The most likely reason is either wrong type (e.g. a video option with no video streams) or that it is a private option of some decoder which was not actually used for any stream.\nStream mapping:\n  Stream #0:0 -> #0:0 (rawvideo (native) -> hevc (libx265))\nPress [q] to stop, [?] for help\n[libx265 @ 000001f35bf0cac0] Unknown option: \"aq-mode.\nx265 [info]: HEVC encoder version 4.1+190-8f11c33ac\nx265 [info]: build info [Windows][GCC 15.1.0][64 bit] 10bit\nx265 [info]: using cpu capabilities: MMX2 SSE2Fast LZCNT SSSE3 SSE4.2 AVX FMA3 BMI2 AVX2\nx265 [info]: Main 10 profile, Level-5 (Main tier)\nx265 [info]: Thread pool created using 12 threads\nx265 [info]: Slices                              : 1\nx265 [info]: frame threads / pool features       : 3 / wpp(17 rows)\nx265 [info]: Coding QT: max CU size, min CU size : 64 / 8\nx265 [info]: Residual QT: max TU size, max depth : 32 / 1 inter / 1 intra\nx265 [info]: ME / range / subpel / merge         : star / 57 / 3 / 3\nx265 [info]: Keyframe min / max / scenecut / bias  : 25 / 250 / 40 / 5.00 \nx265 [info]: Lookahead / bframes / badapt        : 25 / 4 / 2\nx265 [info]: b-pyramid / weightp / weightb       : 1 / 1 / 0\nx265 [info]: References / ref-limit  cu / depth  : 4 / on / on\nx265 [info]: AQ: mode / str / qg-size / cu-tree  : 2 / 1.0 / 32 / 1\nx265 [info]: Rate Control / qCompress            : ABR-1500 kbps / 0.60\nx265 [info]: VBV/HRD buffer / max-rate / init    : 1500 / 1500 / 0.750\nx265 [info]: tools: rect limit-modes rd=4 psy-rd=2.00 rdoq=2 psy-rdoq=1.00\nx265 [info]: tools: rskip mode=1 signhide tmvp strong-intra-smoothing lslices=4\nx265 [info]: tools: deblock sao dhdr10-info\nOutput #0, mp4, to 'C:\\Users\\Peter\\Desktop\\stuff\\MIUN\\quantitative_research\\video_compression\\compressed_videos\\UVG\\hevc\\1.5\\Jockey_1920x1080_120fps_420_8bit_YUV_hevc.mp4':\n  Metadata:\n    encoder         : Lavf62.3.100\n  Stream #0:0: Video: hevc (hev1 / 0x31766568), yuv420p10le(tv, progressive), 1920x1080, q=2-31, 1500 kb/s, 120 fps, 15360 tbn\n    Metadata:\n      encoder         : Lavc62.11.100 libx265\n    Side data:\n      cpb: bitrate max/min/avg: 1500000/0/1500000 buffer size: 1500000 vbv_delay: N/A\nframe=    0 fps=0.0 q=0.0 size=       0KiB time=N/A bitrate=N/A speed=N/A elapsed=0:00:00.52    \nframe=    0 fps=0.0 q=0.0 size=       0KiB time=N/A bitrate=N/A speed=N/A elapsed=0:00:01.03    \nframe=    0 fps=0.0 q=0.0 size=       0KiB time=N/A bitrate=N/A speed=N/A elapsed=0:00:01.55    \nframe=    0 fps=0.0 q=0.0 size=       0KiB time=N/A bitrate=N/A speed=N/A elapsed=0:00:02.06    \nframe=    0 fps=0.0 q=0.0 size=       0KiB time=N/A bitrate=N/A speed=N/A elapsed=0:00:02.57    \nframe=    0 fps=0.0 q=0.0 size=       0KiB time=N/A bitrate=N/A speed=N/A elapsed=0:00:03.08    \nframe=    2 fps=0.6 q=50.9 size=       0KiB time=00:00:00.00 bitrate=N/A speed=   0x elapsed=0:00:03.61    \nframe=    3 fps=0.7 q=51.0 size=       0KiB time=00:00:00.00 bitrate=  42.2kbits/s speed=0.00202x elapsed=0:00:04.13    \nframe=    4 fps=0.9 q=51.0 size=       0KiB time=00:00:00.01 bitrate=  21.1kbits/s speed=0.00359x elapsed=0:00:04.63    \nframe=    5 fps=1.0 q=51.0 size=       0KiB time=00:00:00.02 bitrate=  14.1kbits/s speed=0.00485x elapsed=0:00:05.15    \nframe=    7 fps=1.2 q=51.0 size=       0KiB time=00:00:00.04 bitrate=   8.4kbits/s speed=0.00733x elapsed=0:00:05.68    \nframe=    7 fps=1.1 q=51.0 size=       0KiB time=00:00:00.04 bitrate=   8.4kbits/s speed=0.00671x elapsed=0:00:06.20    \nframe=    9 fps=1.3 q=50.9 size=       0KiB time=00:00:00.05 bitrate=   6.0kbits/s speed=0.00866x elapsed=0:00:06.73    \nframe=   11 fps=1.5 q=48.9 size=       0KiB time=00:00:00.07 bitrate=   4.7kbits/s speed=0.0103x elapsed=0:00:07.27    \nframe=   12 fps=1.5 q=48.7 size=       0KiB time=00:00:00.08 bitrate=   4.2kbits/s speed=0.0107x elapsed=0:00:07.81    \nframe=   12 fps=1.4 q=48.7 size=       0KiB time=00:00:00.08 bitrate=   4.2kbits/s speed=0.00995x elapsed=0:00:08.37    \nframe=   12 fps=1.3 q=48.7 size=       0KiB time=00:00:00.08 bitrate=   4.2kbits/s speed=0.00937x elapsed=0:00:08.89    \nframe=   12 fps=1.3 q=48.7 size=       0KiB time=00:00:00.08 bitrate=   4.2kbits/s speed=0.00883x elapsed=0:00:09.43    \nframe=   13 fps=1.3 q=49.9 size=       0KiB time=00:00:00.09 bitrate=   3.8kbits/s speed=0.00919x elapsed=0:00:09.97    \nframe=   13 fps=1.2 q=49.9 size=       0KiB time=00:00:00.09 bitrate=   3.8kbits/s speed=0.00869x elapsed=0:00:10.55    \nframe=   14 fps=1.3 q=49.8 size=       0KiB time=00:00:00.10 bitrate=   3.5kbits/s speed=0.00902x elapsed=0:00:11.08    \nframe=   15 fps=1.3 q=43.1 size=       0KiB time=00:00:00.10 bitrate=   3.2kbits/s speed=0.00927x elapsed=0:00:11.68    \nframe=   15 fps=1.2 q=43.1 size=       0KiB time=00:00:00.10 bitrate=   3.2kbits/s speed=0.00885x elapsed=0:00:12.24    \nframe=   16 fps=1.3 q=48.8 size=       0KiB time=00:00:00.11 bitrate=   3.0kbits/s speed=0.00914x elapsed=0:00:12.76    \nframe=   17 fps=1.3 q=48.9 size=       0KiB time=00:00:00.12 bitrate=   2.8kbits/s speed=0.00941x elapsed=0:00:13.28    \nframe=   17 fps=1.2 q=48.9 size=       0KiB time=00:00:00.12 bitrate=   2.8kbits/s speed=0.00905x elapsed=0:00:13.80    \nframe=   18 fps=1.3 q=42.9 size=       0KiB time=00:00:00.13 bitrate=   2.6kbits/s speed=0.00928x elapsed=0:00:14.36    \nframe=   18 fps=1.2 q=42.9 size=       0KiB time=00:00:00.13 bitrate=   2.6kbits/s speed=0.00896x elapsed=0:00:14.88    \nframe=   19 fps=1.2 q=48.4 size=       0KiB time=00:00:00.14 bitrate=   2.5kbits/s speed=0.00919x elapsed=0:00:15.40    \nframe=   20 fps=1.3 q=48.0 size=       0KiB time=00:00:00.14 bitrate=   2.5kbits/s speed=0.00886x elapsed=0:00:15.98    \nframe=   20 fps=1.2 q=48.0 size=       0KiB time=00:00:00.15 bitrate=   2.3kbits/s speed=0.00908x elapsed=0:00:16.51    \nframe=   21 fps=1.2 q=47.8 size=       0KiB time=00:00:00.15 bitrate=   2.2kbits/s speed=0.00929x elapsed=0:00:17.03    \nframe=   22 fps=1.3 q=41.6 size=       0KiB time=00:00:00.16 bitrate=   2.1kbits/s speed=0.00948x elapsed=0:00:17.57    \nframe=   22 fps=1.2 q=41.6 size=       0KiB time=00:00:00.16 bitrate=   2.1kbits/s speed=0.00921x elapsed=0:00:18.09    \nframe=   22 fps=1.2 q=41.6 size=       0KiB time=00:00:00.16 bitrate=   2.1kbits/s speed=0.00894x elapsed=0:00:18.64    \nframe=   23 fps=1.2 q=46.8 size=       0KiB time=00:00:00.17 bitrate=   2.0kbits/s speed=0.00913x elapsed=0:00:19.16    \nframe=   24 fps=1.2 q=46.9 size=       0KiB time=00:00:00.18 bitrate=   1.9kbits/s speed=0.00931x elapsed=0:00:19.69    \nframe=   25 fps=1.2 q=40.4 size=       0KiB time=00:00:00.19 bitrate=   1.8kbits/s speed=0.00949x elapsed=0:00:20.20    \nframe=   26 fps=1.3 q=46.3 size=       0KiB time=00:00:00.20 bitrate=   1.8kbits/s speed=0.00964x elapsed=0:00:20.74    \nframe=   27 fps=1.3 q=46.9 size=       0KiB time=00:00:00.20 bitrate=   1.7kbits/s speed=0.00979x elapsed=0:00:21.27    \nframe=   27 fps=1.2 q=46.9 size=       0KiB time=00:00:00.20 bitrate=   1.7kbits/s speed=0.00956x elapsed=0:00:21.79    \nframe=   29 fps=1.3 q=45.5 size=       0KiB time=00:00:00.22 bitrate=   1.6kbits/s speed=0.0101x elapsed=0:00:22.32    \nframe=   29 fps=1.3 q=45.5 size=       0KiB time=00:00:00.22 bitrate=   1.6kbits/s speed=0.00984x elapsed=0:00:22.86    \nframe=   30 fps=1.3 q=46.7 size=       0KiB time=00:00:00.23 bitrate=   1.5kbits/s speed=0.00998x elapsed=0:00:23.37    \nframe=   30 fps=1.3 q=46.7 size=       0KiB time=00:00:00.23 bitrate=   1.5kbits/s speed=0.00974x elapsed=0:00:23.94    \nframe=   32 fps=1.3 q=40.7 size=       0KiB time=00:00:00.25 bitrate=   1.4kbits/s speed=0.0102x elapsed=0:00:24.45    \nframe=   33 fps=1.3 q=45.5 size=       0KiB time=00:00:00.25 bitrate=   1.4kbits/s speed=0.0103x elapsed=0:00:24.99    \nframe=   34 fps=1.3 q=45.9 size=       0KiB time=00:00:00.26 bitrate=   1.3kbits/s speed=0.0104x elapsed=0:00:25.53    \nframe=   34 fps=1.3 q=45.9 size=       0KiB time=00:00:00.26 bitrate=   1.3kbits/s speed=0.0102x elapsed=0:00:26.07    \nframe=   36 fps=1.4 q=39.9 size=       0KiB time=00:00:00.28 bitrate=   1.2kbits/s speed=0.0106x elapsed=0:00:26.61    \nframe=   37 fps=1.4 q=44.9 size=       0KiB time=00:00:00.29 bitrate=   1.2kbits/s speed=0.0108x elapsed=0:00:27.13    \nframe=   38 fps=1.4 q=45.8 size=       0KiB time=00:00:00.30 bitrate=   1.2kbits/s speed=0.0108x elapsed=0:00:27.66    \nframe=   39 fps=1.4 q=39.6 size=       0KiB time=00:00:00.30 bitrate=   1.1kbits/s speed=0.0109x elapsed=0:00:28.20    \nframe=   41 fps=1.4 q=44.8 size=       0KiB time=00:00:00.32 bitrate=   1.1kbits/s speed=0.0113x elapsed=0:00:28.71    \nframe=   42 fps=1.4 q=44.8 size=       0KiB time=00:00:00.33 bitrate=   1.1kbits/s speed=0.0114x elapsed=0:00:29.23    \nframe=   43 fps=1.4 q=44.8 size=       0KiB time=00:00:00.34 bitrate=   1.0kbits/s speed=0.0115x elapsed=0:00:29.75    \nframe=   45 fps=1.5 q=44.5 size=       0KiB time=00:00:00.35 bitrate=   1.0kbits/s speed=0.0118x elapsed=0:00:30.28    \nframe=   45 fps=1.5 q=44.5 size=       0KiB time=00:00:00.35 bitrate=   1.0kbits/s speed=0.0116x elapsed=0:00:30.83    \nframe=   46 fps=1.5 q=44.9 size=       0KiB time=00:00:00.36 bitrate=   1.0kbits/s speed=0.0117x elapsed=0:00:31.34    \nframe=   47 fps=1.5 q=45.7 size=       0KiB time=00:00:00.37 bitrate=   0.9kbits/s speed=0.0118x elapsed=0:00:31.85    \nframe=   49 fps=1.5 q=44.5 size=       0KiB time=00:00:00.39 bitrate=   0.9kbits/s speed=0.0121x elapsed=0:00:32.38    \nframe=   49 fps=1.5 q=44.5 size=       0KiB time=00:00:00.39 bitrate=   0.9kbits/s speed=0.0119x elapsed=0:00:32.88    \nframe=   50 fps=1.5 q=45.7 size=       0KiB time=00:00:00.40 bitrate=   0.9kbits/s speed=0.012x elapsed=0:00:33.40    \nframe=   51 fps=1.5 q=44.9 size=       0KiB time=00:00:00.40 bitrate=   0.9kbits/s speed=0.012x elapsed=0:00:33.93    \nframe=   52 fps=1.5 q=38.8 size=       0KiB time=00:00:00.41 bitrate=   0.8kbits/s speed=0.0121x elapsed=0:00:34.48    \nframe=   53 fps=1.5 q=44.7 size=       0KiB time=00:00:00.42 bitrate=   0.8kbits/s speed=0.0121x elapsed=0:00:35.00    \nframe=   55 fps=1.5 q=39.0 size=       0KiB time=00:00:00.44 bitrate=   0.8kbits/s speed=0.0124x elapsed=0:00:35.51    \nframe=   56 fps=1.6 q=43.6 size=       0KiB time=00:00:00.45 bitrate=   0.8kbits/s speed=0.0125x elapsed=0:00:36.03    \nframe=   57 fps=1.6 q=44.8 size=       0KiB time=00:00:00.45 bitrate=   0.8kbits/s speed=0.0125x elapsed=0:00:36.56    \nframe=   57 fps=1.5 q=44.8 size=       0KiB time=00:00:00.45 bitrate=   0.8kbits/s speed=0.0124x elapsed=0:00:37.08    \nframe=   59 fps=1.6 q=39.0 size=       0KiB time=00:00:00.47 bitrate=   0.7kbits/s speed=0.0126x elapsed=0:00:37.59    \nframe=   60 fps=1.6 q=43.6 size=       0KiB time=00:00:00.48 bitrate=   0.7kbits/s speed=0.0127x elapsed=0:00:38.10    \nframe=   60 fps=1.6 q=43.6 size=       0KiB time=00:00:00.48 bitrate=   0.7kbits/s speed=0.0125x elapsed=0:00:38.62    \nframe=   60 fps=1.5 q=43.6 size=       0KiB time=00:00:00.48 bitrate=   0.7kbits/s speed=0.0123x elapsed=0:00:39.14    \nframe=   61 fps=1.5 q=44.9 size=       0KiB time=00:00:00.49 bitrate=   0.7kbits/s speed=0.0124x elapsed=0:00:39.67    \nframe=   62 fps=1.5 q=44.8 size=       0KiB time=00:00:00.50 bitrate=   0.7kbits/s speed=0.0124x elapsed=0:00:40.23    \nframe=   63 fps=1.5 q=39.4 size=       0KiB time=00:00:00.50 bitrate=   0.7kbits/s speed=0.0125x elapsed=0:00:40.74    \nframe=   65 fps=1.6 q=44.8 size=       0KiB time=00:00:00.52 bitrate=   0.7kbits/s speed=0.0127x elapsed=0:00:41.27    \nframe=   66 fps=1.6 q=44.9 size=       0KiB time=00:00:00.53 bitrate=   0.7kbits/s speed=0.0128x elapsed=0:00:41.78    \nframe=   66 fps=1.6 q=44.9 size=       0KiB time=00:00:00.53 bitrate=   0.7kbits/s speed=0.0126x elapsed=0:00:42.30    \nframe=   68 fps=1.6 q=39.5 size=       0KiB time=00:00:00.55 bitrate=   0.6kbits/s speed=0.0128x elapsed=0:00:42.83    \nframe=   69 fps=1.6 q=44.4 size=       0KiB time=00:00:00.55 bitrate=   0.6kbits/s speed=0.0129x elapsed=0:00:43.35    \nframe=   69 fps=1.6 q=44.4 size=       0KiB time=00:00:00.55 bitrate=   0.6kbits/s speed=0.0127x elapsed=0:00:43.85    \nframe=   70 fps=1.6 q=45.7 size=       0KiB time=00:00:00.56 bitrate=   0.6kbits/s speed=0.0128x elapsed=0:00:44.37    \nframe=   71 fps=1.6 q=44.9 size=       0KiB time=00:00:00.57 bitrate=   0.6kbits/s speed=0.0128x elapsed=0:00:44.89    \nframe=   72 fps=1.6 q=38.9 size=       0KiB time=00:00:00.58 bitrate=   0.6kbits/s speed=0.0128x elapsed=0:00:45.43    \nframe=   73 fps=1.6 q=43.8 size=       0KiB time=00:00:00.59 bitrate=   0.6kbits/s speed=0.0129x elapsed=0:00:45.95    \nframe=   73 fps=1.6 q=43.8 size=       0KiB time=00:00:00.59 bitrate=   0.6kbits/s speed=0.0127x elapsed=0:00:46.46    \nframe=   75 fps=1.6 q=39.7 size=       0KiB time=00:00:00.60 bitrate=   0.6kbits/s speed=0.0129x elapsed=0:00:47.00    \nframe=   76 fps=1.6 q=43.4 size=       0KiB time=00:00:00.61 bitrate=   0.6kbits/s speed=0.013x elapsed=0:00:47.55    \nframe=   77 fps=1.6 q=44.9 size=       0KiB time=00:00:00.62 bitrate=   0.6kbits/s speed=0.013x elapsed=0:00:48.07    \nframe=   77 fps=1.6 q=44.9 size=       0KiB time=00:00:00.62 bitrate=   0.6kbits/s speed=0.0129x elapsed=0:00:48.60    \nframe=   78 fps=1.6 q=44.8 size=       0KiB time=00:00:00.63 bitrate=   0.6kbits/s speed=0.0129x elapsed=0:00:49.12    \nframe=   79 fps=1.6 q=38.7 size=       0KiB time=00:00:00.64 bitrate=   0.5kbits/s speed=0.0129x elapsed=0:00:49.65    \nframe=   80 fps=1.6 q=43.7 size=       0KiB time=00:00:00.65 bitrate=   0.5kbits/s speed=0.013x elapsed=0:00:50.19    \nframe=   81 fps=1.6 q=44.8 size=       0KiB time=00:00:00.65 bitrate=   0.5kbits/s speed=0.013x elapsed=0:00:50.72    \nframe=   82 fps=1.6 q=38.5 size=       0KiB time=00:00:00.66 bitrate=   0.5kbits/s speed=0.013x elapsed=0:00:51.26    \nframe=   84 fps=1.6 q=44.8 size=       0KiB time=00:00:00.68 bitrate=   0.5kbits/s speed=0.0132x elapsed=0:00:51.78    \nframe=   84 fps=1.6 q=44.8 size=       0KiB time=00:00:00.68 bitrate=   0.5kbits/s speed=0.0131x elapsed=0:00:52.31    \nframe=   86 fps=1.6 q=44.9 size=       0KiB time=00:00:00.70 bitrate=   0.5kbits/s speed=0.0132x elapsed=0:00:52.85    \nframe=   86 fps=1.6 q=44.9 size=       0KiB time=00:00:00.70 bitrate=   0.5kbits/s speed=0.0131x elapsed=0:00:53.37    \nframe=   86 fps=1.6 q=44.9 size=       0KiB time=00:00:00.70 bitrate=   0.5kbits/s speed=0.013x elapsed=0:00:53.91    \nframe=   88 fps=1.6 q=43.2 size=       0KiB time=00:00:00.71 bitrate=   0.5kbits/s speed=0.0132x elapsed=0:00:54.44    \nframe=   88 fps=1.6 q=43.2 size=       0KiB time=00:00:00.71 bitrate=   0.5kbits/s speed=0.013x elapsed=0:00:54.96    \nframe=   89 fps=1.6 q=44.8 size=       0KiB time=00:00:00.72 bitrate=   0.5kbits/s speed=0.0131x elapsed=0:00:55.49    \nframe=   91 fps=1.6 q=39.1 size=       0KiB time=00:00:00.74 bitrate=   0.5kbits/s speed=0.0132x elapsed=0:00:56.02    \nframe=   91 fps=1.6 q=39.1 size=       0KiB time=00:00:00.74 bitrate=   0.5kbits/s speed=0.0131x elapsed=0:00:56.55    \nframe=   93 fps=1.6 q=44.8 size=       0KiB time=00:00:00.75 bitrate=   0.5kbits/s speed=0.0133x elapsed=0:00:57.05    \nframe=   94 fps=1.6 q=39.6 size=       0KiB time=00:00:00.76 bitrate=   0.5kbits/s speed=0.0133x elapsed=0:00:57.60    \nframe=   95 fps=1.6 q=43.2 size=       0KiB time=00:00:00.77 bitrate=   0.5kbits/s speed=0.0133x elapsed=0:00:58.13    \nframe=   95 fps=1.6 q=43.2 size=       0KiB time=00:00:00.77 bitrate=   0.5kbits/s speed=0.0132x elapsed=0:00:58.66    \nframe=   96 fps=1.6 q=44.8 size=       0KiB time=00:00:00.78 bitrate=   0.4kbits/s speed=0.0132x elapsed=0:00:59.19    \nframe=   97 fps=1.6 q=44.9 size=       0KiB time=00:00:00.79 bitrate=   0.4kbits/s speed=0.0133x elapsed=0:00:59.72    \nframe=   98 fps=1.6 q=39.8 size=       0KiB time=00:00:00.80 bitrate=   0.4kbits/s speed=0.0133x elapsed=0:01:00.24    \nframe=   99 fps=1.6 q=44.1 size=       0KiB time=00:00:00.80 bitrate=   0.4kbits/s speed=0.0133x elapsed=0:01:00.77    \nframe=   99 fps=1.6 q=44.1 size=       0KiB time=00:00:00.80 bitrate=   0.4kbits/s speed=0.0132x elapsed=0:01:01.28    \nframe=  101 fps=1.6 q=45.8 size=       0KiB time=00:00:00.82 bitrate=   0.4kbits/s speed=0.0134x elapsed=0:01:01.79    \nframe=  101 fps=1.6 q=45.8 size=       0KiB time=00:00:00.82 bitrate=   0.4kbits/s speed=0.0132x elapsed=0:01:02.35    \nframe=  102 fps=1.6 q=39.7 size=       0KiB time=00:00:00.83 bitrate=   0.4kbits/s speed=0.0132x elapsed=0:01:02.89    \nframe=  103 fps=1.6 q=44.5 size=       0KiB time=00:00:00.84 bitrate=   0.4kbits/s speed=0.0133x elapsed=0:01:03.42    \nframe=  103 fps=1.6 q=44.5 size=       0KiB time=00:00:00.84 bitrate=   0.4kbits/s speed=0.0132x elapsed=0:01:03.98    \nframe=  105 fps=1.6 q=40.3 size=       0KiB time=00:00:00.85 bitrate=   0.4kbits/s speed=0.0133x elapsed=0:01:04.50    \nframe=  105 fps=1.6 q=40.3 size=       0KiB time=00:00:00.85 bitrate=   0.4kbits/s speed=0.0132x elapsed=0:01:05.01    \nframe=  106 fps=1.6 q=44.4 size=       0KiB time=00:00:00.86 bitrate=   0.4kbits/s speed=0.0132x elapsed=0:01:05.52    \nframe=  107 fps=1.6 q=45.7 size=       0KiB time=00:00:00.87 bitrate=   0.4kbits/s speed=0.0132x elapsed=0:01:06.06    \nframe=  107 fps=1.6 q=45.7 size=       0KiB time=00:00:00.87 bitrate=   0.4kbits/s speed=0.0131x elapsed=0:01:06.58    \nframe=  108 fps=1.6 q=40.0 size=       0KiB time=00:00:00.88 bitrate=   0.4kbits/s speed=0.0132x elapsed=0:01:07.11    \nframe=  109 fps=1.6 q=44.4 size=       0KiB time=00:00:00.89 bitrate=   0.4kbits/s speed=0.0132x elapsed=0:01:07.64    \nframe=  110 fps=1.6 q=45.7 size=       0KiB time=00:00:00.90 bitrate=   0.4kbits/s speed=0.0132x elapsed=0:01:08.19    \nframe=  111 fps=1.6 q=40.2 size=       0KiB time=00:00:00.90 bitrate=   0.4kbits/s speed=0.0132x elapsed=0:01:08.70    \nframe=  111 fps=1.6 q=40.2 size=       0KiB time=00:00:00.90 bitrate=   0.4kbits/s speed=0.0131x elapsed=0:01:09.23    \nframe=  112 fps=1.6 q=44.7 size=       0KiB time=00:00:00.91 bitrate=   0.4kbits/s speed=0.0131x elapsed=0:01:09.74    \nframe=  112 fps=1.6 q=44.7 size=       0KiB time=00:00:00.91 bitrate=   0.4kbits/s speed=0.013x elapsed=0:01:10.26    \nframe=  113 fps=1.6 q=45.6 size=       0KiB time=00:00:00.92 bitrate=   0.4kbits/s speed=0.0131x elapsed=0:01:10.79    \nframe=  114 fps=1.6 q=40.4 size=       0KiB time=00:00:00.93 bitrate=   0.4kbits/s speed=0.0131x elapsed=0:01:11.33    \nframe=  115 fps=1.6 q=44.4 size=       0KiB time=00:00:00.94 bitrate=   0.4kbits/s speed=0.0131x elapsed=0:01:11.86    \nframe=  117 fps=1.6 q=40.4 size=       0KiB time=00:00:00.95 bitrate=   0.4kbits/s speed=0.0132x elapsed=0:01:12.38    \nframe=  117 fps=1.6 q=40.4 size=       0KiB time=00:00:00.95 bitrate=   0.4kbits/s speed=0.0131x elapsed=0:01:12.92    \nframe=  118 fps=1.6 q=44.3 size=       0KiB time=00:00:00.96 bitrate=   0.4kbits/s speed=0.0132x elapsed=0:01:13.43    \nframe=  119 fps=1.6 q=45.7 size=       0KiB time=00:00:00.97 bitrate=   0.4kbits/s speed=0.0132x elapsed=0:01:13.95    \nframe=  120 fps=1.6 q=40.8 size=       0KiB time=00:00:00.98 bitrate=   0.4kbits/s speed=0.0132x elapsed=0:01:14.48    \nframe=  121 fps=1.6 q=45.7 size=       0KiB time=00:00:00.99 bitrate=   0.4kbits/s speed=0.0132x elapsed=0:01:15.01    \nframe=  121 fps=1.6 q=45.7 size=       0KiB time=00:00:00.99 bitrate=   0.4kbits/s speed=0.0131x elapsed=0:01:15.53    \nframe=  122 fps=1.6 q=40.5 size=       0KiB time=00:00:01.00 bitrate=   0.4kbits/s speed=0.0131x elapsed=0:01:16.05    \nframe=  123 fps=1.6 q=44.2 size=       0KiB time=00:00:01.00 bitrate=   0.3kbits/s speed=0.0132x elapsed=0:01:16.56    \nframe=  123 fps=1.6 q=44.2 size=       0KiB time=00:00:01.00 bitrate=   0.3kbits/s speed=0.0131x elapsed=0:01:17.08    \nframe=  123 fps=1.6 q=44.2 size=       0KiB time=00:00:01.00 bitrate=   0.3kbits/s speed=0.013x elapsed=0:01:17.64    \nframe=  124 fps=1.6 q=45.7 size=       0KiB time=00:00:01.01 bitrate=   0.3kbits/s speed=0.013x elapsed=0:01:18.16    \nframe=  125 fps=1.6 q=45.8 size=       0KiB time=00:00:01.02 bitrate=   0.3kbits/s speed=0.013x elapsed=0:01:18.68    \nframe=  126 fps=1.6 q=40.4 size=       0KiB time=00:00:01.03 bitrate=   0.3kbits/s speed=0.013x elapsed=0:01:19.20    \nframe=  127 fps=1.6 q=44.5 size=       0KiB time=00:00:01.04 bitrate=   0.3kbits/s speed=0.0131x elapsed=0:01:19.71    \nframe=  128 fps=1.6 q=45.8 size=       0KiB time=00:00:01.05 bitrate=   0.3kbits/s speed=0.0131x elapsed=0:01:20.23    \nframe=  128 fps=1.6 q=45.8 size=       0KiB time=00:00:01.05 bitrate=   0.3kbits/s speed=0.013x elapsed=0:01:20.74    \nframe=  128 fps=1.6 q=45.8 size=       0KiB time=00:00:01.05 bitrate=   0.3kbits/s speed=0.0129x elapsed=0:01:21.26    \nframe=  129 fps=1.6 q=45.8 size=       0KiB time=00:00:01.05 bitrate=   0.3kbits/s speed=0.0129x elapsed=0:01:21.78    \nframe=  131 fps=1.6 q=40.4 size=       0KiB time=00:00:01.07 bitrate=   0.3kbits/s speed=0.0131x elapsed=0:01:22.29    \nframe=  132 fps=1.6 q=44.5 size=       0KiB time=00:00:01.08 bitrate=   0.3kbits/s speed=0.0131x elapsed=0:01:22.82    \nframe=  132 fps=1.6 q=44.5 size=       0KiB time=00:00:01.08 bitrate=   0.3kbits/s speed=0.013x elapsed=0:01:23.34    \nframe=  133 fps=1.6 q=46.8 size=       0KiB time=00:00:01.09 bitrate=   0.3kbits/s speed=0.013x elapsed=0:01:23.86    \nframe=  134 fps=1.6 q=46.7 size=       0KiB time=00:00:01.10 bitrate=   0.3kbits/s speed=0.013x elapsed=0:01:24.40    \nframe=  135 fps=1.6 q=40.7 size=       0KiB time=00:00:01.10 bitrate=   0.3kbits/s speed=0.013x elapsed=0:01:24.96    \nframe=  135 fps=1.6 q=40.7 size=       0KiB time=00:00:01.10 bitrate=   0.3kbits/s speed=0.013x elapsed=0:01:25.50    \nframe=  136 fps=1.6 q=45.5 size=       0KiB time=00:00:01.11 bitrate=   0.3kbits/s speed=0.013x elapsed=0:01:26.03    \nframe=  136 fps=1.6 q=45.5 size=       0KiB time=00:00:01.11 bitrate=   0.3kbits/s speed=0.0129x elapsed=0:01:26.55    \nframe=  137 fps=1.6 q=46.6 size=       0KiB time=00:00:01.12 bitrate=   0.3kbits/s speed=0.0129x elapsed=0:01:27.07    \nframe=  139 fps=1.6 q=44.3 size=       0KiB time=00:00:01.14 bitrate=   0.3kbits/s speed=0.013x elapsed=0:01:27.60    \nframe=  139 fps=1.6 q=44.3 size=       0KiB time=00:00:01.14 bitrate=   0.3kbits/s speed=0.013x elapsed=0:01:28.11    \nframe=  141 fps=1.6 q=46.6 size=       0KiB time=00:00:01.15 bitrate=   0.3kbits/s speed=0.0131x elapsed=0:01:28.66    \nframe=  141 fps=1.6 q=46.6 size=       0KiB time=00:00:01.15 bitrate=   0.3kbits/s speed=0.013x elapsed=0:01:29.18    \nframe=  142 fps=1.6 q=39.9 size=       0KiB time=00:00:01.16 bitrate=   0.3kbits/s speed=0.013x elapsed=0:01:29.70    \nframe=  143 fps=1.6 q=44.8 size=       0KiB time=00:00:01.17 bitrate=   0.3kbits/s speed=0.013x elapsed=0:01:30.27    \nframe=  143 fps=1.6 q=44.8 size=       0KiB time=00:00:01.17 bitrate=   0.3kbits/s speed=0.0129x elapsed=0:01:30.83    \nframe=  143 fps=1.6 q=44.8 size=       0KiB time=00:00:01.17 bitrate=   0.3kbits/s speed=0.0129x elapsed=0:01:31.43    \nframe=  143 fps=1.6 q=44.8 size=       0KiB time=00:00:01.17 bitrate=   0.3kbits/s speed=0.0128x elapsed=0:01:31.97    \nframe=  143 fps=1.5 q=44.8 size=       0KiB time=00:00:01.17 bitrate=   0.3kbits/s speed=0.0127x elapsed=0:01:32.52    \nframe=  144 fps=1.5 q=46.6 size=       0KiB time=00:00:01.18 bitrate=   0.3kbits/s speed=0.0127x elapsed=0:01:33.03    \nframe=  144 fps=1.5 q=46.6 size=       0KiB time=00:00:01.18 bitrate=   0.3kbits/s speed=0.0126x elapsed=0:01:33.59    \nframe=  144 fps=1.5 q=46.6 size=       0KiB time=00:00:01.18 bitrate=   0.3kbits/s speed=0.0126x elapsed=0:01:34.17    \nframe=  145 fps=1.5 q=46.6 size=       0KiB time=00:00:01.19 bitrate=   0.3kbits/s speed=0.0126x elapsed=0:01:34.72    \nframe=  145 fps=1.5 q=46.6 size=       0KiB time=00:00:01.19 bitrate=   0.3kbits/s speed=0.0125x elapsed=0:01:35.24    \nframe=  146 fps=1.5 q=40.1 size=       0KiB time=00:00:01.20 bitrate=   0.3kbits/s speed=0.0125x elapsed=0:01:35.78    \nframe=  147 fps=1.5 q=44.8 size=       0KiB time=00:00:01.20 bitrate=   0.3kbits/s speed=0.0125x elapsed=0:01:36.32    \nframe=  147 fps=1.5 q=44.8 size=       0KiB time=00:00:01.20 bitrate=   0.3kbits/s speed=0.0125x elapsed=0:01:36.84    \nframe=  147 fps=1.5 q=44.8 size=       0KiB time=00:00:01.20 bitrate=   0.3kbits/s speed=0.0124x elapsed=0:01:37.36    \nframe=  147 fps=1.5 q=44.8 size=       0KiB time=00:00:01.20 bitrate=   0.3kbits/s speed=0.0123x elapsed=0:01:37.90    \nframe=  148 fps=1.5 q=46.7 size=       0KiB time=00:00:01.21 bitrate=   0.3kbits/s speed=0.0124x elapsed=0:01:38.43    \nframe=  150 fps=1.5 q=40.1 size=       0KiB time=00:00:01.23 bitrate=   0.3kbits/s speed=0.0125x elapsed=0:01:38.96    \nframe=  151 fps=1.5 q=45.4 size=       0KiB time=00:00:01.24 bitrate=   0.3kbits/s speed=0.0125x elapsed=0:01:39.49    \nframe=  152 fps=1.5 q=46.7 size=       0KiB time=00:00:01.25 bitrate=   0.3kbits/s speed=0.0125x elapsed=0:01:40.02    \nframe=  152 fps=1.5 q=46.7 size=       0KiB time=00:00:01.25 bitrate=   0.3kbits/s speed=0.0124x elapsed=0:01:40.53    \nframe=  153 fps=1.5 q=46.7 size=       0KiB time=00:00:01.25 bitrate=   0.3kbits/s speed=0.0125x elapsed=0:01:41.05    \nframe=  155 fps=1.5 q=40.4 size=       0KiB time=00:00:01.26 bitrate=   0.3kbits/s speed=0.0125x elapsed=0:01:41.57    \nframe=  155 fps=1.5 q=40.4 size=       0KiB time=00:00:01.27 bitrate=   0.3kbits/s speed=0.0125x elapsed=0:01:42.12    \nframe=  156 fps=1.5 q=45.3 size=       0KiB time=00:00:01.28 bitrate=   0.3kbits/s speed=0.0125x elapsed=0:01:42.65    \nframe=  157 fps=1.5 q=46.6 size=       0KiB time=00:00:01.29 bitrate=   0.3kbits/s speed=0.0125x elapsed=0:01:43.15    \nframe=  158 fps=1.5 q=40.3 size=       0KiB time=00:00:01.30 bitrate=   0.3kbits/s speed=0.0125x elapsed=0:01:43.67    \nframe=  159 fps=1.5 q=45.2 size=       0KiB time=00:00:01.30 bitrate=   0.3kbits/s speed=0.0126x elapsed=0:01:44.19    \nframe=  159 fps=1.5 q=45.2 size=       0KiB time=00:00:01.30 bitrate=   0.3kbits/s speed=0.0125x elapsed=0:01:44.72    \nframe=  160 fps=1.5 q=46.7 size=       0KiB time=00:00:01.31 bitrate=   0.3kbits/s speed=0.0125x elapsed=0:01:45.27    \nframe=  160 fps=1.5 q=46.7 size=       0KiB time=00:00:01.31 bitrate=   0.3kbits/s speed=0.0124x elapsed=0:01:45.79    \nframe=  160 fps=1.5 q=46.7 size=       0KiB time=00:00:01.31 bitrate=   0.3kbits/s speed=0.0124x elapsed=0:01:46.36    \nframe=  161 fps=1.5 q=46.8 size=       0KiB time=00:00:01.32 bitrate=   0.3kbits/s speed=0.0124x elapsed=0:01:46.95    \nframe=  162 fps=1.5 q=40.0 size=       0KiB time=00:00:01.33 bitrate=   0.3kbits/s speed=0.0124x elapsed=0:01:47.56    \nframe=  163 fps=1.5 q=45.2 size=       0KiB time=00:00:01.34 bitrate=   0.3kbits/s speed=0.0124x elapsed=0:01:48.09    \nframe=  163 fps=1.5 q=45.2 size=       0KiB time=00:00:01.34 bitrate=   0.3kbits/s speed=0.0124x elapsed=0:01:48.60    \nframe=  164 fps=1.5 q=46.8 size=       0KiB time=00:00:01.35 bitrate=   0.3kbits/s speed=0.0124x elapsed=0:01:49.15    \nframe=  164 fps=1.5 q=46.8 size=       0KiB time=00:00:01.35 bitrate=   0.3kbits/s speed=0.0123x elapsed=0:01:49.70    \nframe=  164 fps=1.5 q=46.8 size=       0KiB time=00:00:01.35 bitrate=   0.3kbits/s speed=0.0122x elapsed=0:01:50.23    \nframe=  164 fps=1.5 q=46.8 size=       0KiB time=00:00:01.35 bitrate=   0.3kbits/s speed=0.0122x elapsed=0:01:50.80    \nframe=  164 fps=1.5 q=46.8 size=       0KiB time=00:00:01.35 bitrate=   0.3kbits/s speed=0.0121x elapsed=0:01:51.32    \nframe=  164 fps=1.5 q=46.8 size=       0KiB time=00:00:01.35 bitrate=   0.3kbits/s speed=0.0121x elapsed=0:01:51.89    \nframe=  165 fps=1.5 q=46.9 size=       0KiB time=00:00:01.35 bitrate=   0.3kbits/s speed=0.0121x elapsed=0:01:52.44    \nframe=  166 fps=1.5 q=40.3 size=       0KiB time=00:00:01.36 bitrate=   0.3kbits/s speed=0.0121x elapsed=0:01:53.04    \nframe=  166 fps=1.5 q=40.3 size=       0KiB time=00:00:01.36 bitrate=   0.3kbits/s speed=0.012x elapsed=0:01:53.59    \nframe=  166 fps=1.5 q=40.3 size=       0KiB time=00:00:01.36 bitrate=   0.3kbits/s speed=0.012x elapsed=0:01:54.16    \nframe=  166 fps=1.4 q=40.3 size=       0KiB time=00:00:01.36 bitrate=   0.3kbits/s speed=0.0119x elapsed=0:01:54.71    \nframe=  167 fps=1.4 q=45.2 size=       0KiB time=00:00:01.37 bitrate=   0.3kbits/s speed=0.0119x elapsed=0:01:55.26    \nframe=  167 fps=1.4 q=45.2 size=       0KiB time=00:00:01.37 bitrate=   0.3kbits/s speed=0.0119x elapsed=0:01:55.82    \nframe=  168 fps=1.4 q=46.8 size=       0KiB time=00:00:01.37 bitrate=   0.3kbits/s speed=0.0118x elapsed=0:01:56.35    \nframe=  168 fps=1.4 q=46.8 size=       0KiB time=00:00:01.38 bitrate=   0.3kbits/s speed=0.0118x elapsed=0:01:56.91    \nframe=  169 fps=1.4 q=46.8 size=       0KiB time=00:00:01.39 bitrate=   0.3kbits/s speed=0.0119x elapsed=0:01:57.43    \nframe=  170 fps=1.4 q=40.3 size=       0KiB time=00:00:01.40 bitrate=   0.3kbits/s speed=0.0119x elapsed=0:01:57.98    \nframe=  171 fps=1.4 q=45.2 size=     256KiB time=00:00:01.40 bitrate=1489.4kbits/s speed=0.0119x elapsed=0:01:58.52    \nframe=  171 fps=1.4 q=45.2 size=     256KiB time=00:00:01.40 bitrate=1489.4kbits/s speed=0.0118x elapsed=0:01:59.05    \nframe=  172 fps=1.4 q=46.7 size=     256KiB time=00:00:01.41 bitrate=1480.6kbits/s speed=0.0118x elapsed=0:01:59.58    \nframe=  172 fps=1.4 q=46.7 size=     256KiB time=00:00:01.41 bitrate=1480.6kbits/s speed=0.0118x elapsed=0:02:00.10    \nframe=  173 fps=1.4 q=46.8 size=     256KiB time=00:00:01.42 bitrate=1471.9kbits/s speed=0.0118x elapsed=0:02:00.62    \nframe=  174 fps=1.4 q=40.6 size=     256KiB time=00:00:01.43 bitrate=1463.4kbits/s speed=0.0118x elapsed=0:02:01.15    \nframe=  174 fps=1.4 q=40.6 size=     256KiB time=00:00:01.43 bitrate=1463.4kbits/s speed=0.0118x elapsed=0:02:01.70    \nframe=  175 fps=1.4 q=44.8 size=     256KiB time=00:00:01.44 bitrate=1454.9kbits/s speed=0.0118x elapsed=0:02:02.23    \nframe=  175 fps=1.4 q=44.8 size=     256KiB time=00:00:01.44 bitrate=1454.9kbits/s speed=0.0117x elapsed=0:02:02.79    \nframe=  175 fps=1.4 q=44.8 size=     256KiB time=00:00:01.44 bitrate=1454.9kbits/s speed=0.0117x elapsed=0:02:03.32    \nframe=  175 fps=1.4 q=44.8 size=     256KiB time=00:00:01.44 bitrate=1454.9kbits/s speed=0.0116x elapsed=0:02:03.86    \nframe=  176 fps=1.4 q=46.7 size=     256KiB time=00:00:01.45 bitrate=1446.6kbits/s speed=0.0117x elapsed=0:02:04.38    \nframe=  178 fps=1.4 q=45.3 size=     256KiB time=00:00:01.46 bitrate=1430.1kbits/s speed=0.0117x elapsed=0:02:04.91    \nframe=  178 fps=1.4 q=45.3 size=     256KiB time=00:00:01.46 bitrate=1430.1kbits/s speed=0.0117x elapsed=0:02:05.42    \nframe=  179 fps=1.4 q=46.7 size=     256KiB time=00:00:01.47 bitrate=1422.0kbits/s speed=0.0117x elapsed=0:02:05.95    \nframe=  179 fps=1.4 q=46.7 size=     256KiB time=00:00:01.47 bitrate=1422.0kbits/s speed=0.0117x elapsed=0:02:06.48    \nframe=  181 fps=1.4 q=46.7 size=     256KiB time=00:00:01.49 bitrate=1406.1kbits/s speed=0.0117x elapsed=0:02:07.01    \nframe=  182 fps=1.4 q=40.8 size=     256KiB time=00:00:01.50 bitrate=1398.3kbits/s speed=0.0118x elapsed=0:02:07.54    \nframe=  182 fps=1.4 q=40.8 size=     256KiB time=00:00:01.50 bitrate=1398.3kbits/s speed=0.0117x elapsed=0:02:08.07    \nframe=  182 fps=1.4 q=40.8 size=     256KiB time=00:00:01.50 bitrate=1398.3kbits/s speed=0.0117x elapsed=0:02:08.59    \nframe=  184 fps=1.4 q=46.7 size=     256KiB time=00:00:01.51 bitrate=1383.0kbits/s speed=0.0117x elapsed=0:02:09.12    \nframe=  184 fps=1.4 q=46.7 size=     256KiB time=00:00:01.51 bitrate=1383.0kbits/s speed=0.0117x elapsed=0:02:09.65    \nframe=  185 fps=1.4 q=40.9 size=     256KiB time=00:00:01.52 bitrate=1375.4kbits/s speed=0.0117x elapsed=0:02:10.18    \nframe=  185 fps=1.4 q=40.9 size=     256KiB time=00:00:01.52 bitrate=1375.4kbits/s speed=0.0117x elapsed=0:02:10.69    \nframe=  187 fps=1.4 q=46.8 size=     256KiB time=00:00:01.54 bitrate=1360.5kbits/s speed=0.0117x elapsed=0:02:11.21    \nframe=  187 fps=1.4 q=46.8 size=     256KiB time=00:00:01.54 bitrate=1360.5kbits/s speed=0.0117x elapsed=0:02:11.76    \nframe=  188 fps=1.4 q=40.8 size=     256KiB time=00:00:01.55 bitrate=1353.2kbits/s speed=0.0117x elapsed=0:02:12.29    \nframe=  189 fps=1.4 q=45.3 size=     256KiB time=00:00:01.55 bitrate=1346.0kbits/s speed=0.0117x elapsed=0:02:12.83    \nframe=  189 fps=1.4 q=45.3 size=     256KiB time=00:00:01.55 bitrate=1346.0kbits/s speed=0.0117x elapsed=0:02:13.36    \nframe=  189 fps=1.4 q=45.3 size=     256KiB time=00:00:01.55 bitrate=1346.0kbits/s speed=0.0116x elapsed=0:02:13.88    \nframe=  190 fps=1.4 q=46.7 size=     256KiB time=00:00:01.56 bitrate=1338.8kbits/s speed=0.0117x elapsed=0:02:14.39    \nframe=  191 fps=1.4 q=46.8 size=     256KiB time=00:00:01.57 bitrate=1331.7kbits/s speed=0.0117x elapsed=0:02:14.93    \nframe=  191 fps=1.4 q=46.8 size=     256KiB time=00:00:01.57 bitrate=1331.7kbits/s speed=0.0116x elapsed=0:02:15.44    \nframe=  191 fps=1.4 q=46.8 size=     256KiB time=00:00:01.57 bitrate=1331.7kbits/s speed=0.0116x elapsed=0:02:15.99    \nframe=  192 fps=1.4 q=41.3 size=     256KiB time=00:00:01.58 bitrate=1324.7kbits/s speed=0.0116x elapsed=0:02:16.53    \nframe=  193 fps=1.4 q=46.7 size=     256KiB time=00:00:01.59 bitrate=1317.8kbits/s speed=0.0116x elapsed=0:02:17.04    \nframe=  194 fps=1.4 q=41.0 size=     256KiB time=00:00:01.60 bitrate=1310.9kbits/s speed=0.0116x elapsed=0:02:17.56    \nframe=  195 fps=1.4 q=45.1 size=     256KiB time=00:00:01.60 bitrate=1304.1kbits/s speed=0.0116x elapsed=0:02:18.08    \nframe=  195 fps=1.4 q=45.1 size=     256KiB time=00:00:01.60 bitrate=1304.1kbits/s speed=0.0116x elapsed=0:02:18.61    \nframe=  196 fps=1.4 q=46.6 size=     256KiB time=00:00:01.61 bitrate=1297.4kbits/s speed=0.0116x elapsed=0:02:19.14    \nframe=  196 fps=1.4 q=46.6 size=     256KiB time=00:00:01.61 bitrate=1297.4kbits/s speed=0.0116x elapsed=0:02:19.65    \nframe=  198 fps=1.4 q=40.9 size=     256KiB time=00:00:01.63 bitrate=1284.2kbits/s speed=0.0117x elapsed=0:02:20.18    \nframe=  199 fps=1.4 q=45.2 size=     256KiB time=00:00:01.64 bitrate=1277.7kbits/s speed=0.0117x elapsed=0:02:20.71    \nframe=  200 fps=1.4 q=46.7 size=     256KiB time=00:00:01.65 bitrate=1271.2kbits/s speed=0.0117x elapsed=0:02:21.24    \nframe=  200 fps=1.4 q=46.7 size=     256KiB time=00:00:01.65 bitrate=1271.2kbits/s speed=0.0116x elapsed=0:02:21.76    \nframe=  201 fps=1.4 q=46.6 size=     256KiB time=00:00:01.65 bitrate=1264.8kbits/s speed=0.0117x elapsed=0:02:22.28    \nframe=  203 fps=1.4 q=41.0 size=     256KiB time=00:00:01.67 bitrate=1252.2kbits/s speed=0.0117x elapsed=0:02:22.79    \nframe=  203 fps=1.4 q=41.0 size=     256KiB time=00:00:01.67 bitrate=1252.2kbits/s speed=0.0117x elapsed=0:02:23.32    \nframe=  204 fps=1.4 q=45.7 size=     256KiB time=00:00:01.68 bitrate=1246.0kbits/s speed=0.0117x elapsed=0:02:23.85    \nframe=  204 fps=1.4 q=45.7 size=     256KiB time=00:00:01.68 bitrate=1246.0kbits/s speed=0.0117x elapsed=0:02:24.38    \nframe=  205 fps=1.4 q=46.8 size=     256KiB time=00:00:01.69 bitrate=1239.9kbits/s speed=0.0117x elapsed=0:02:24.91    \nframe=  206 fps=1.4 q=40.5 size=     256KiB time=00:00:01.70 bitrate=1233.8kbits/s speed=0.0117x elapsed=0:02:25.43    \nframe=  206 fps=1.4 q=40.5 size=     256KiB time=00:00:01.70 bitrate=1233.8kbits/s speed=0.0116x elapsed=0:02:25.97    \nframe=  207 fps=1.4 q=45.3 size=     256KiB time=00:00:01.70 bitrate=1227.8kbits/s speed=0.0117x elapsed=0:02:26.49    \nframe=  208 fps=1.4 q=46.7 size=     256KiB time=00:00:01.71 bitrate=1221.8kbits/s speed=0.0117x elapsed=0:02:26.99    \nframe=  208 fps=1.4 q=46.7 size=     256KiB time=00:00:01.71 bitrate=1221.8kbits/s speed=0.0116x elapsed=0:02:27.51    \nframe=  209 fps=1.4 q=40.8 size=     256KiB time=00:00:01.72 bitrate=1215.9kbits/s speed=0.0117x elapsed=0:02:28.03    \nframe=  209 fps=1.4 q=40.8 size=     256KiB time=00:00:01.72 bitrate=1215.9kbits/s speed=0.0116x elapsed=0:02:28.55    \nframe=  209 fps=1.4 q=40.8 size=     256KiB time=00:00:01.72 bitrate=1215.9kbits/s speed=0.0116x elapsed=0:02:29.12    \nframe=  209 fps=1.4 q=40.8 size=     256KiB time=00:00:01.72 bitrate=1215.9kbits/s speed=0.0115x elapsed=0:02:29.68    \nframe=  210 fps=1.4 q=45.7 size=     256KiB time=00:00:01.73 bitrate=1210.1kbits/s speed=0.0115x elapsed=0:02:30.20    \nframe=  210 fps=1.4 q=45.7 size=     256KiB time=00:00:01.73 bitrate=1210.1kbits/s speed=0.0115x elapsed=0:02:30.75    \nframe=  211 fps=1.4 q=46.8 size=     256KiB time=00:00:01.74 bitrate=1204.3kbits/s speed=0.0115x elapsed=0:02:31.29    \nframe=  212 fps=1.4 q=40.7 size=     256KiB time=00:00:01.75 bitrate=1198.6kbits/s speed=0.0115x elapsed=0:02:31.81    \nframe=  212 fps=1.4 q=40.7 size=     256KiB time=00:00:01.75 bitrate=1198.6kbits/s speed=0.0115x elapsed=0:02:32.37    \nframe=  212 fps=1.4 q=40.7 size=     256KiB time=00:00:01.75 bitrate=1198.6kbits/s speed=0.0114x elapsed=0:02:32.90    \nframe=  213 fps=1.4 q=45.3 size=     256KiB time=00:00:01.75 bitrate=1192.9kbits/s speed=0.0115x elapsed=0:02:33.44    \nframe=  214 fps=1.4 q=46.8 size=     256KiB time=00:00:01.76 bitrate=1187.3kbits/s speed=0.0115x elapsed=0:02:33.98    \nframe=  214 fps=1.4 q=46.8 size=     256KiB time=00:00:01.76 bitrate=1187.3kbits/s speed=0.0114x elapsed=0:02:34.51    \nframe=  214 fps=1.4 q=46.8 size=     256KiB time=00:00:01.76 bitrate=1187.3kbits/s speed=0.0114x elapsed=0:02:35.08    \nframe=  215 fps=1.4 q=40.9 size=     256KiB time=00:00:01.77 bitrate=1181.7kbits/s speed=0.0114x elapsed=0:02:35.62    \nframe=  215 fps=1.4 q=40.9 size=     256KiB time=00:00:01.77 bitrate=1181.7kbits/s speed=0.0114x elapsed=0:02:36.16    \nframe=  216 fps=1.4 q=45.2 size=     256KiB time=00:00:01.78 bitrate=1176.2kbits/s speed=0.0114x elapsed=0:02:36.70    \nframe=  216 fps=1.4 q=45.2 size=     256KiB time=00:00:01.78 bitrate=1176.2kbits/s speed=0.0113x elapsed=0:02:37.23    \nframe=  217 fps=1.4 q=46.7 size=     256KiB time=00:00:01.79 bitrate=1170.7kbits/s speed=0.0114x elapsed=0:02:37.79    \nframe=  219 fps=1.4 q=44.9 size=     256KiB time=00:00:01.80 bitrate=1159.9kbits/s speed=0.0114x elapsed=0:02:38.35    \nframe=  219 fps=1.4 q=44.9 size=     256KiB time=00:00:01.80 bitrate=1159.9kbits/s speed=0.0114x elapsed=0:02:38.89    \nframe=  219 fps=1.4 q=44.9 size=     256KiB time=00:00:01.80 bitrate=1159.9kbits/s speed=0.0113x elapsed=0:02:39.41    \nframe=  219 fps=1.4 q=44.9 size=     256KiB time=00:00:01.80 bitrate=1159.9kbits/s speed=0.0113x elapsed=0:02:39.99    \nframe=  220 fps=1.4 q=47.3 size=     256KiB time=00:00:01.81 bitrate=1154.6kbits/s speed=0.0113x elapsed=0:02:40.54    \nframe=  222 fps=1.4 q=41.2 size=     256KiB time=00:00:01.83 bitrate=1144.1kbits/s speed=0.0114x elapsed=0:02:41.11    \nframe=  223 fps=1.4 q=45.6 size=     256KiB time=00:00:01.84 bitrate=1138.9kbits/s speed=0.0114x elapsed=0:02:41.62    \nframe=  223 fps=1.4 q=45.6 size=     256KiB time=00:00:01.84 bitrate=1138.9kbits/s speed=0.0114x elapsed=0:02:42.18    \nframe=  224 fps=1.4 q=47.5 size=     256KiB time=00:00:01.85 bitrate=1133.8kbits/s speed=0.0114x elapsed=0:02:42.70    \nframe=  224 fps=1.4 q=47.5 size=     256KiB time=00:00:01.85 bitrate=1133.8kbits/s speed=0.0113x elapsed=0:02:43.23    \nframe=  224 fps=1.4 q=47.5 size=     256KiB time=00:00:01.85 bitrate=1133.8kbits/s speed=0.0113x elapsed=0:02:43.75    \nframe=  225 fps=1.4 q=47.4 size=     256KiB time=00:00:01.85 bitrate=1128.7kbits/s speed=0.0113x elapsed=0:02:44.27    \nframe=  226 fps=1.4 q=47.7 size=     256KiB time=00:00:01.86 bitrate=1123.7kbits/s speed=0.0113x elapsed=0:02:44.80    \nframe=  226 fps=1.4 q=47.7 size=     256KiB time=00:00:01.86 bitrate=1123.7kbits/s speed=0.0113x elapsed=0:02:45.33    \nframe=  226 fps=1.4 q=47.7 size=     256KiB time=00:00:01.86 bitrate=1123.7kbits/s speed=0.0113x elapsed=0:02:45.86    \nframe=  227 fps=1.4 q=41.4 size=     256KiB time=00:00:01.87 bitrate=1118.7kbits/s speed=0.0113x elapsed=0:02:46.37    \nframe=  228 fps=1.4 q=44.0 size=     256KiB time=00:00:01.88 bitrate=1113.7kbits/s speed=0.0113x elapsed=0:02:46.91    \nframe=  228 fps=1.4 q=44.0 size=     256KiB time=00:00:01.88 bitrate=1113.7kbits/s speed=0.0112x elapsed=0:02:47.43    \nframe=  229 fps=1.4 q=47.5 size=     256KiB time=00:00:01.89 bitrate=1108.8kbits/s speed=0.0113x elapsed=0:02:47.97    \nframe=  229 fps=1.4 q=47.5 size=     256KiB time=00:00:01.89 bitrate=1108.8kbits/s speed=0.0112x elapsed=0:02:48.49    \nframe=  229 fps=1.4 q=47.5 size=     256KiB time=00:00:01.89 bitrate=1108.8kbits/s speed=0.0112x elapsed=0:02:49.01    \nframe=  229 fps=1.4 q=47.5 size=     256KiB time=00:00:01.89 bitrate=1108.8kbits/s speed=0.0112x elapsed=0:02:49.52    \nframe=  230 fps=1.4 q=47.5 size=     256KiB time=00:00:01.90 bitrate=1103.9kbits/s speed=0.0112x elapsed=0:02:50.05    \nframe=  231 fps=1.4 q=47.7 size=     256KiB time=00:00:01.90 bitrate=1099.1kbits/s speed=0.0112x elapsed=0:02:50.60    \nframe=  231 fps=1.3 q=47.7 size=     256KiB time=00:00:01.90 bitrate=1099.1kbits/s speed=0.0111x elapsed=0:02:51.16    \nframe=  232 fps=1.4 q=41.5 size=     256KiB time=00:00:01.91 bitrate=1094.3kbits/s speed=0.0112x elapsed=0:02:51.68    \nframe=  233 fps=1.4 q=45.3 size=     256KiB time=00:00:01.92 bitrate=1089.6kbits/s speed=0.0112x elapsed=0:02:52.21    \nframe=  233 fps=1.3 q=45.3 size=     256KiB time=00:00:01.92 bitrate=1089.6kbits/s speed=0.0111x elapsed=0:02:52.75    \nframe=  235 fps=1.4 q=41.6 size=     256KiB time=00:00:01.93 bitrate=1084.9kbits/s speed=0.0112x elapsed=0:02:53.28    \nframe=  235 fps=1.4 q=41.6 size=     256KiB time=00:00:01.94 bitrate=1080.3kbits/s speed=0.0112x elapsed=0:02:53.86    \nframe=  235 fps=1.3 q=41.6 size=     256KiB time=00:00:01.94 bitrate=1080.3kbits/s speed=0.0111x elapsed=0:02:54.38    \nframe=  236 fps=1.3 q=45.3 size=     256KiB time=00:00:01.95 bitrate=1075.6kbits/s speed=0.0111x elapsed=0:02:54.91    \nframe=  236 fps=1.3 q=45.3 size=     256KiB time=00:00:01.95 bitrate=1075.6kbits/s speed=0.0111x elapsed=0:02:55.45    \nframe=  236 fps=1.3 q=45.3 size=     256KiB time=00:00:01.95 bitrate=1075.6kbits/s speed=0.0111x elapsed=0:02:56.01    \nframe=  238 fps=1.3 q=41.5 size=     256KiB time=00:00:01.96 bitrate=1066.5kbits/s speed=0.0111x elapsed=0:02:56.53    \nframe=  238 fps=1.3 q=41.5 size=     256KiB time=00:00:01.96 bitrate=1066.5kbits/s speed=0.0111x elapsed=0:02:57.07    \nframe=  238 fps=1.3 q=41.5 size=     256KiB time=00:00:01.96 bitrate=1066.5kbits/s speed=0.0111x elapsed=0:02:57.59    \nframe=  240 fps=1.3 q=47.6 size=     256KiB time=00:00:01.98 bitrate=1057.6kbits/s speed=0.0111x elapsed=0:02:58.12    \nframe=  241 fps=1.3 q=41.6 size=     256KiB time=00:00:01.99 bitrate=1053.1kbits/s speed=0.0111x elapsed=0:02:58.64    \nframe=  242 fps=1.4 q=46.0 size=     256KiB time=00:00:02.00 bitrate=1048.8kbits/s speed=0.0112x elapsed=0:02:59.16    \nframe=  242 fps=1.3 q=46.0 size=     256KiB time=00:00:02.00 bitrate=1048.8kbits/s speed=0.0111x elapsed=0:02:59.68    \nframe=  244 fps=1.4 q=41.8 size=     256KiB time=00:00:02.01 bitrate=1040.1kbits/s speed=0.0112x elapsed=0:03:00.21    \nframe=  245 fps=1.4 q=45.2 size=     256KiB time=00:00:02.02 bitrate=1035.8kbits/s speed=0.0112x elapsed=0:03:00.75    \nframe=  246 fps=1.4 q=47.4 size=     256KiB time=00:00:02.03 bitrate=1031.6kbits/s speed=0.0112x elapsed=0:03:01.27    \nframe=  246 fps=1.4 q=47.4 size=     256KiB time=00:00:02.03 bitrate=1031.6kbits/s speed=0.0112x elapsed=0:03:01.79    \nframe=  246 fps=1.3 q=47.4 size=     256KiB time=00:00:02.03 bitrate=1031.6kbits/s speed=0.0112x elapsed=0:03:02.34    \nframe=  247 fps=1.4 q=47.6 size=     256KiB time=00:00:02.04 bitrate=1027.3kbits/s speed=0.0112x elapsed=0:03:02.88    \nframe=  248 fps=1.4 q=40.0 size=     256KiB time=00:00:02.05 bitrate=1023.2kbits/s speed=0.0112x elapsed=0:03:03.41    \nframe=  249 fps=1.4 q=44.6 size=     256KiB time=00:00:02.05 bitrate=1019.0kbits/s speed=0.0112x elapsed=0:03:03.94    \nframe=  249 fps=1.3 q=44.6 size=     256KiB time=00:00:02.05 bitrate=1019.0kbits/s speed=0.0112x elapsed=0:03:04.47    \nframe=  252 fps=1.4 q=41.9 size=     256KiB time=00:00:02.08 bitrate=1006.8kbits/s speed=0.0113x elapsed=0:03:04.99    \nframe=  253 fps=1.4 q=45.0 size=     256KiB time=00:00:02.09 bitrate=1002.8kbits/s speed=0.0113x elapsed=0:03:05.53    \nframe=  255 fps=1.4 q=46.7 size=     256KiB time=00:00:02.10 bitrate= 994.9kbits/s speed=0.0113x elapsed=0:03:06.05    \nframe=  255 fps=1.4 q=46.7 size=     256KiB time=00:00:02.10 bitrate= 994.9kbits/s speed=0.0113x elapsed=0:03:06.57    \nframe=  256 fps=1.4 q=41.8 size=     256KiB time=00:00:02.11 bitrate= 990.9kbits/s speed=0.0113x elapsed=0:03:07.11    \nframe=  256 fps=1.4 q=41.8 size=     256KiB time=00:00:02.11 bitrate= 990.9kbits/s speed=0.0113x elapsed=0:03:07.62    \nframe=  257 fps=1.4 q=45.0 size=     256KiB time=00:00:02.12 bitrate= 987.1kbits/s speed=0.0113x elapsed=0:03:08.15    \nframe=  259 fps=1.4 q=41.6 size=     256KiB time=00:00:02.14 bitrate= 979.4kbits/s speed=0.0114x elapsed=0:03:08.68    \nframe=  259 fps=1.4 q=41.6 size=     256KiB time=00:00:02.14 bitrate= 979.4kbits/s speed=0.0113x elapsed=0:03:09.21    \nframe=  260 fps=1.4 q=44.6 size=     256KiB time=00:00:02.15 bitrate= 975.6kbits/s speed=0.0113x elapsed=0:03:09.73    \nframe=  261 fps=1.4 q=46.9 size=     256KiB time=00:00:02.15 bitrate= 971.8kbits/s speed=0.0113x elapsed=0:03:10.27    \nframe=  262 fps=1.4 q=46.9 size=     256KiB time=00:00:02.16 bitrate= 968.1kbits/s speed=0.0114x elapsed=0:03:10.78    \nframe=  262 fps=1.4 q=46.9 size=     256KiB time=00:00:02.16 bitrate= 968.1kbits/s speed=0.0113x elapsed=0:03:11.36    \nframe=  264 fps=1.4 q=44.9 size=     256KiB time=00:00:02.18 bitrate= 960.7kbits/s speed=0.0114x elapsed=0:03:11.90    \nframe=  264 fps=1.4 q=44.9 size=     256KiB time=00:00:02.18 bitrate= 960.7kbits/s speed=0.0113x elapsed=0:03:12.43    \nframe=  266 fps=1.4 q=46.7 size=     256KiB time=00:00:02.20 bitrate= 953.4kbits/s speed=0.0114x elapsed=0:03:12.95    \nframe=  267 fps=1.4 q=46.8 size=     256KiB time=00:00:02.20 bitrate= 949.8kbits/s speed=0.0114x elapsed=0:03:13.49    \nframe=  267 fps=1.4 q=46.8 size=     256KiB time=00:00:02.20 bitrate= 949.8kbits/s speed=0.0114x elapsed=0:03:14.00    \nframe=  268 fps=1.4 q=41.5 size=     256KiB time=00:00:02.21 bitrate= 946.2kbits/s speed=0.0114x elapsed=0:03:14.52    \nframe=  269 fps=1.4 q=44.8 size=     256KiB time=00:00:02.22 bitrate= 942.7kbits/s speed=0.0114x elapsed=0:03:15.07    \nframe=  269 fps=1.4 q=44.8 size=     256KiB time=00:00:02.22 bitrate= 942.7kbits/s speed=0.0114x elapsed=0:03:15.59    \nframe=  271 fps=1.4 q=46.8 size=     256KiB time=00:00:02.24 bitrate= 935.7kbits/s speed=0.0114x elapsed=0:03:16.12    \nframe=  271 fps=1.4 q=46.8 size=     256KiB time=00:00:02.24 bitrate= 935.7kbits/s speed=0.0114x elapsed=0:03:16.65    \nframe=  272 fps=1.4 q=41.6 size=     256KiB time=00:00:02.25 bitrate= 932.2kbits/s speed=0.0114x elapsed=0:03:17.19    \nframe=  274 fps=1.4 q=46.6 size=     256KiB time=00:00:02.26 bitrate= 925.4kbits/s speed=0.0115x elapsed=0:03:17.70    \nframe=  274 fps=1.4 q=46.6 size=     256KiB time=00:00:02.26 bitrate= 925.4kbits/s speed=0.0114x elapsed=0:03:18.24    \nframe=  275 fps=1.4 q=46.5 size=     256KiB time=00:00:02.27 bitrate= 922.0kbits/s speed=0.0114x elapsed=0:03:18.76    \nframe=  276 fps=1.4 q=46.5 size=     256KiB time=00:00:02.28 bitrate= 918.6kbits/s speed=0.0115x elapsed=0:03:19.30    \nframe=  276 fps=1.4 q=46.5 size=     256KiB time=00:00:02.28 bitrate= 918.6kbits/s speed=0.0114x elapsed=0:03:19.82    \nframe=  278 fps=1.4 q=44.7 size=     256KiB time=00:00:02.30 bitrate= 912.0kbits/s speed=0.0115x elapsed=0:03:20.35    \nframe=  278 fps=1.4 q=44.7 size=     256KiB time=00:00:02.30 bitrate= 912.0kbits/s speed=0.0114x elapsed=0:03:20.89    \nframe=  280 fps=1.4 q=46.8 size=     256KiB time=00:00:02.31 bitrate= 905.4kbits/s speed=0.0115x elapsed=0:03:21.42    \nframe=  281 fps=1.4 q=41.8 size=     256KiB time=00:00:02.32 bitrate= 902.2kbits/s speed=0.0115x elapsed=0:03:21.95    \nframe=  282 fps=1.4 q=44.1 size=     256KiB time=00:00:02.33 bitrate= 898.9kbits/s speed=0.0115x elapsed=0:03:22.52    \nframe=  282 fps=1.4 q=44.1 size=     256KiB time=00:00:02.33 bitrate= 898.9kbits/s speed=0.0115x elapsed=0:03:23.05    \nframe=  283 fps=1.4 q=47.1 size=     256KiB time=00:00:02.34 bitrate= 895.7kbits/s speed=0.0115x elapsed=0:03:23.57    \nframe=  283 fps=1.4 q=47.1 size=     256KiB time=00:00:02.34 bitrate= 895.7kbits/s speed=0.0115x elapsed=0:03:24.10    \nframe=  284 fps=1.4 q=46.4 size=     256KiB time=00:00:02.35 bitrate= 892.6kbits/s speed=0.0115x elapsed=0:03:24.63    \nframe=  284 fps=1.4 q=46.4 size=     256KiB time=00:00:02.35 bitrate= 892.6kbits/s speed=0.0115x elapsed=0:03:25.17    \nframe=  284 fps=1.4 q=46.4 size=     256KiB time=00:00:02.35 bitrate= 892.6kbits/s speed=0.0114x elapsed=0:03:25.70    \nframe=  286 fps=1.4 q=44.8 size=     256KiB time=00:00:02.36 bitrate= 886.3kbits/s speed=0.0115x elapsed=0:03:26.25    \nframe=  287 fps=1.4 q=46.7 size=     256KiB time=00:00:02.37 bitrate= 883.2kbits/s speed=0.0115x elapsed=0:03:26.78    \nframe=  287 fps=1.4 q=46.7 size=     256KiB time=00:00:02.37 bitrate= 883.2kbits/s speed=0.0115x elapsed=0:03:27.29    \nframe=  288 fps=1.4 q=46.9 size=     256KiB time=00:00:02.38 bitrate= 880.1kbits/s speed=0.0115x elapsed=0:03:27.81    \nframe=  288 fps=1.4 q=46.9 size=     256KiB time=00:00:02.38 bitrate= 880.1kbits/s speed=0.0114x elapsed=0:03:28.33    \nframe=  289 fps=1.4 q=41.8 size=     256KiB time=00:00:02.39 bitrate= 877.0kbits/s speed=0.0114x elapsed=0:03:28.88    \nframe=  290 fps=1.4 q=46.2 size=     256KiB time=00:00:02.40 bitrate= 874.0kbits/s speed=0.0115x elapsed=0:03:29.43    \nframe=  290 fps=1.4 q=46.2 size=     256KiB time=00:00:02.40 bitrate= 874.0kbits/s speed=0.0114x elapsed=0:03:29.95    \nframe=  290 fps=1.4 q=46.2 size=     256KiB time=00:00:02.40 bitrate= 874.0kbits/s speed=0.0114x elapsed=0:03:30.47    \nframe=  291 fps=1.4 q=46.9 size=     256KiB time=00:00:02.40 bitrate= 870.9kbits/s speed=0.0114x elapsed=0:03:31.01    \nframe=  292 fps=1.4 q=46.8 size=     256KiB time=00:00:02.41 bitrate= 867.9kbits/s speed=0.0114x elapsed=0:03:31.54    \nframe=  292 fps=1.4 q=46.8 size=     256KiB time=00:00:02.41 bitrate= 867.9kbits/s speed=0.0114x elapsed=0:03:32.08    \nframe=  293 fps=1.4 q=43.6 size=     256KiB time=00:00:02.42 bitrate= 865.0kbits/s speed=0.0114x elapsed=0:03:32.60    \nframe=  294 fps=1.4 q=47.2 size=     256KiB time=00:00:02.43 bitrate= 862.0kbits/s speed=0.0114x elapsed=0:03:33.14    \nframe=  294 fps=1.4 q=47.2 size=     256KiB time=00:00:02.43 bitrate= 862.0kbits/s speed=0.0114x elapsed=0:03:33.69    \nframe=  294 fps=1.4 q=47.2 size=     256KiB time=00:00:02.43 bitrate= 862.0kbits/s speed=0.0114x elapsed=0:03:34.20    \nframe=  295 fps=1.4 q=48.0 size=     256KiB time=00:00:02.44 bitrate= 859.0kbits/s speed=0.0114x elapsed=0:03:34.74    \nframe=  296 fps=1.4 q=48.6 size=     256KiB time=00:00:02.45 bitrate= 856.1kbits/s speed=0.0114x elapsed=0:03:35.30    \nframe=  297 fps=1.4 q=44.3 size=     256KiB time=00:00:02.45 bitrate= 853.2kbits/s speed=0.0114x elapsed=0:03:35.83    \nframe=  298 fps=1.4 q=47.8 size=     256KiB time=00:00:02.46 bitrate= 850.3kbits/s speed=0.0114x elapsed=0:03:36.36    \nframe=  299 fps=1.4 q=49.1 size=     256KiB time=00:00:02.47 bitrate= 847.5kbits/s speed=0.0114x elapsed=0:03:36.92    \nframe=  299 fps=1.4 q=49.1 size=     256KiB time=00:00:02.47 bitrate= 847.5kbits/s speed=0.0114x elapsed=0:03:37.45    \nframe=  300 fps=1.4 q=49.5 size=     256KiB time=00:00:02.48 bitrate= 844.6kbits/s speed=0.0114x elapsed=0:03:37.98    \nframe=  300 fps=1.4 q=49.5 size=     256KiB time=00:00:02.48 bitrate= 844.6kbits/s speed=0.0114x elapsed=0:03:38.49    \nframe=  300 fps=1.4 q=49.5 size=     256KiB time=00:00:02.48 bitrate= 844.6kbits/s speed=0.0113x elapsed=0:03:39.01    \nframe=  301 fps=1.4 q=45.2 size=     256KiB time=00:00:02.49 bitrate= 841.8kbits/s speed=0.0113x elapsed=0:03:39.55    \nframe=  301 fps=1.4 q=45.2 size=     256KiB time=00:00:02.49 bitrate= 841.8kbits/s speed=0.0113x elapsed=0:03:40.07    \nframe=  303 fps=1.4 q=49.6 size=     256KiB time=00:00:02.50 bitrate= 836.2kbits/s speed=0.0114x elapsed=0:03:40.62    \nframe=  303 fps=1.4 q=49.6 size=     256KiB time=00:00:02.50 bitrate= 836.2kbits/s speed=0.0113x elapsed=0:03:41.17    \nframe=  304 fps=1.4 q=49.9 size=     256KiB time=00:00:02.51 bitrate= 833.4kbits/s speed=0.0114x elapsed=0:03:41.70    \nframe=  305 fps=1.4 q=50.0 size=     256KiB time=00:00:02.52 bitrate= 830.7kbits/s speed=0.0114x elapsed=0:03:42.21    \nframe=  305 fps=1.4 q=50.0 size=     256KiB time=00:00:02.52 bitrate= 830.7kbits/s speed=0.0113x elapsed=0:03:42.73    \nframe=  307 fps=1.4 q=50.0 size=     256KiB time=00:00:02.54 bitrate= 825.2kbits/s speed=0.0114x elapsed=0:03:43.25    \nframe=  307 fps=1.4 q=50.0 size=     256KiB time=00:00:02.54 bitrate= 825.2kbits/s speed=0.0114x elapsed=0:03:43.79    \nframe=  308 fps=1.4 q=50.3 size=     256KiB time=00:00:02.55 bitrate= 822.6kbits/s speed=0.0114x elapsed=0:03:44.32    \nframe=  309 fps=1.4 q=50.6 size=     256KiB time=00:00:02.55 bitrate= 819.9kbits/s speed=0.0114x elapsed=0:03:44.84    \nframe=  309 fps=1.4 q=50.6 size=     256KiB time=00:00:02.55 bitrate= 819.9kbits/s speed=0.0114x elapsed=0:03:45.35    \nframe=  311 fps=1.4 q=49.8 size=     512KiB time=00:00:02.57 bitrate=1629.0kbits/s speed=0.0114x elapsed=0:03:45.87    \nframe=  311 fps=1.4 q=49.8 size=     512KiB time=00:00:02.57 bitrate=1629.0kbits/s speed=0.0114x elapsed=0:03:46.38    \nframe=  311 fps=1.4 q=49.8 size=     512KiB time=00:00:02.57 bitrate=1629.0kbits/s speed=0.0113x elapsed=0:03:46.90    \nframe=  312 fps=1.4 q=50.9 size=     512KiB time=00:00:02.58 bitrate=1623.7kbits/s speed=0.0114x elapsed=0:03:47.42    \nframe=  313 fps=1.4 q=50.9 size=     512KiB time=00:00:02.59 bitrate=1618.5kbits/s speed=0.0114x elapsed=0:03:47.94    \nframe=  314 fps=1.4 q=46.6 size=     512KiB time=00:00:02.60 bitrate=1613.3kbits/s speed=0.0114x elapsed=0:03:48.45    \nframe=  314 fps=1.4 q=46.6 size=     512KiB time=00:00:02.60 bitrate=1613.3kbits/s speed=0.0114x elapsed=0:03:48.97    \nframe=  315 fps=1.4 q=50.0 size=     512KiB time=00:00:02.60 bitrate=1608.2kbits/s speed=0.0114x elapsed=0:03:49.48    \nframe=  315 fps=1.4 q=50.0 size=     512KiB time=00:00:02.60 bitrate=1608.2kbits/s speed=0.0113x elapsed=0:03:50.00    \nframe=  316 fps=1.4 q=50.9 size=     512KiB time=00:00:02.61 bitrate=1603.1kbits/s speed=0.0114x elapsed=0:03:50.52    \nframe=  316 fps=1.4 q=50.9 size=     512KiB time=00:00:02.61 bitrate=1603.1kbits/s speed=0.0113x elapsed=0:03:51.05    \nframe=  317 fps=1.4 q=50.9 size=     512KiB time=00:00:02.61 bitrate=1603.1kbits/s speed=0.0113x elapsed=0:03:51.56    \nframe=  317 fps=1.4 q=50.9 size=     512KiB time=00:00:02.62 bitrate=1598.0kbits/s speed=0.0113x elapsed=0:03:52.08    \nframe=  318 fps=1.4 q=46.2 size=     512KiB time=00:00:02.63 bitrate=1592.9kbits/s speed=0.0113x elapsed=0:03:52.61    \nframe=  319 fps=1.4 q=50.3 size=     512KiB time=00:00:02.64 bitrate=1587.9kbits/s speed=0.0113x elapsed=0:03:53.12    \nframe=  319 fps=1.4 q=50.3 size=     512KiB time=00:00:02.64 bitrate=1587.9kbits/s speed=0.0113x elapsed=0:03:53.64    \nframe=  320 fps=1.4 q=51.0 size=     512KiB time=00:00:02.65 bitrate=1582.9kbits/s speed=0.0113x elapsed=0:03:54.16    \nframe=  320 fps=1.4 q=51.0 size=     512KiB time=00:00:02.65 bitrate=1582.9kbits/s speed=0.0113x elapsed=0:03:54.69    \nframe=  320 fps=1.4 q=51.0 size=     512KiB time=00:00:02.65 bitrate=1582.9kbits/s speed=0.0113x elapsed=0:03:55.21    \nframe=  321 fps=1.4 q=50.9 size=     512KiB time=00:00:02.65 bitrate=1577.9kbits/s speed=0.0113x elapsed=0:03:55.73    \nframe=  322 fps=1.4 q=46.2 size=     512KiB time=00:00:02.66 bitrate=1573.0kbits/s speed=0.0113x elapsed=0:03:56.25    \nframe=  323 fps=1.4 q=49.6 size=     512KiB time=00:00:02.67 bitrate=1568.1kbits/s speed=0.0113x elapsed=0:03:56.76    \nframe=  323 fps=1.4 q=49.6 size=     512KiB time=00:00:02.67 bitrate=1568.1kbits/s speed=0.0113x elapsed=0:03:57.28    \nframe=  324 fps=1.4 q=50.9 size=     512KiB time=00:00:02.68 bitrate=1563.2kbits/s speed=0.0113x elapsed=0:03:57.80    \nframe=  324 fps=1.4 q=50.9 size=     512KiB time=00:00:02.68 bitrate=1563.2kbits/s speed=0.0113x elapsed=0:03:58.30    \nframe=  325 fps=1.4 q=50.6 size=     512KiB time=00:00:02.69 bitrate=1558.4kbits/s speed=0.0113x elapsed=0:03:58.85    \nframe=  325 fps=1.4 q=50.6 size=     512KiB time=00:00:02.69 bitrate=1558.4kbits/s speed=0.0112x elapsed=0:03:59.36    \nframe=  326 fps=1.4 q=45.5 size=     512KiB time=00:00:02.70 bitrate=1553.6kbits/s speed=0.0113x elapsed=0:03:59.87    \nframe=  327 fps=1.4 q=49.8 size=     512KiB time=00:00:02.70 bitrate=1548.8kbits/s speed=0.0113x elapsed=0:04:00.40    \nframe=  327 fps=1.4 q=49.8 size=     512KiB time=00:00:02.70 bitrate=1548.8kbits/s speed=0.0112x elapsed=0:04:00.91    \nframe=  328 fps=1.4 q=50.8 size=     512KiB time=00:00:02.71 bitrate=1544.0kbits/s speed=0.0113x elapsed=0:04:01.44    \nframe=  329 fps=1.4 q=50.8 size=     512KiB time=00:00:02.72 bitrate=1539.3kbits/s speed=0.0113x elapsed=0:04:01.95    \nframe=  330 fps=1.4 q=45.8 size=     512KiB time=00:00:02.73 bitrate=1534.6kbits/s speed=0.0113x elapsed=0:04:02.47    \nframe=  331 fps=1.4 q=49.6 size=     512KiB time=00:00:02.74 bitrate=1530.0kbits/s speed=0.0113x elapsed=0:04:02.99    \nframe=  331 fps=1.4 q=49.6 size=     512KiB time=00:00:02.74 bitrate=1530.0kbits/s speed=0.0113x elapsed=0:04:03.51    \nframe=  331 fps=1.4 q=49.6 size=     512KiB time=00:00:02.74 bitrate=1530.0kbits/s speed=0.0112x elapsed=0:04:04.04    \nframe=  332 fps=1.4 q=50.8 size=     512KiB time=00:00:02.75 bitrate=1525.3kbits/s speed=0.0112x elapsed=0:04:04.56    \nframe=  333 fps=1.4 q=50.8 size=     512KiB time=00:00:02.75 bitrate=1520.7kbits/s speed=0.0113x elapsed=0:04:05.08    \nframe=  334 fps=1.4 q=45.2 size=     512KiB time=00:00:02.76 bitrate=1516.1kbits/s speed=0.0113x elapsed=0:04:05.60    \nframe=  335 fps=1.4 q=48.9 size=     512KiB time=00:00:02.77 bitrate=1511.6kbits/s speed=0.0113x elapsed=0:04:06.12    \nframe=  335 fps=1.4 q=48.9 size=     512KiB time=00:00:02.77 bitrate=1511.6kbits/s speed=0.0113x elapsed=0:04:06.64    \nframe=  336 fps=1.4 q=50.9 size=     512KiB time=00:00:02.78 bitrate=1507.1kbits/s speed=0.0113x elapsed=0:04:07.15    \nframe=  337 fps=1.4 q=50.7 size=     512KiB time=00:00:02.79 bitrate=1502.6kbits/s speed=0.0113x elapsed=0:04:07.68    \nframe=  338 fps=1.4 q=44.8 size=     512KiB time=00:00:02.80 bitrate=1498.1kbits/s speed=0.0113x elapsed=0:04:08.21    \nframe=  339 fps=1.4 q=48.5 size=     512KiB time=00:00:02.80 bitrate=1493.6kbits/s speed=0.0113x elapsed=0:04:08.73    \nframe=  339 fps=1.4 q=48.5 size=     512KiB time=00:00:02.80 bitrate=1493.6kbits/s speed=0.0113x elapsed=0:04:09.25    \nframe=  340 fps=1.4 q=50.5 size=     512KiB time=00:00:02.81 bitrate=1489.2kbits/s speed=0.0113x elapsed=0:04:09.76    \nframe=  340 fps=1.4 q=50.5 size=     512KiB time=00:00:02.81 bitrate=1489.2kbits/s speed=0.0113x elapsed=0:04:10.27    \nframe=  340 fps=1.4 q=50.5 size=     512KiB time=00:00:02.81 bitrate=1489.2kbits/s speed=0.0112x elapsed=0:04:10.79    \nframe=  340 fps=1.4 q=50.5 size=     512KiB time=00:00:02.81 bitrate=1489.2kbits/s speed=0.0112x elapsed=0:04:11.31    \nframe=  342 fps=1.4 q=44.0 size=     512KiB time=00:00:02.83 bitrate=1480.5kbits/s speed=0.0113x elapsed=0:04:11.83    \nframe=  343 fps=1.4 q=48.2 size=     512KiB time=00:00:02.84 bitrate=1476.1kbits/s speed=0.0113x elapsed=0:04:12.35    \nframe=  343 fps=1.4 q=48.2 size=     512KiB time=00:00:02.84 bitrate=1476.1kbits/s speed=0.0112x elapsed=0:04:12.89    \nframe=  344 fps=1.4 q=50.7 size=     512KiB time=00:00:02.85 bitrate=1471.8kbits/s speed=0.0112x elapsed=0:04:13.42    \nframe=  345 fps=1.4 q=50.3 size=     512KiB time=00:00:02.85 bitrate=1467.5kbits/s speed=0.0113x elapsed=0:04:13.95    \nframe=  346 fps=1.4 q=44.8 size=     512KiB time=00:00:02.86 bitrate=1463.3kbits/s speed=0.0113x elapsed=0:04:14.47    \nframe=  347 fps=1.4 q=47.9 size=     512KiB time=00:00:02.87 bitrate=1459.0kbits/s speed=0.0113x elapsed=0:04:14.98    \nframe=  347 fps=1.4 q=47.9 size=     512KiB time=00:00:02.87 bitrate=1459.0kbits/s speed=0.0113x elapsed=0:04:15.50    \nframe=  348 fps=1.4 q=50.5 size=     512KiB time=00:00:02.88 bitrate=1454.8kbits/s speed=0.0113x elapsed=0:04:16.02    \nframe=  350 fps=1.4 q=44.0 size=     512KiB time=00:00:02.90 bitrate=1446.4kbits/s speed=0.0113x elapsed=0:04:16.52    \nframe=  350 fps=1.4 q=44.0 size=     512KiB time=00:00:02.90 bitrate=1446.4kbits/s speed=0.0113x elapsed=0:04:17.05    \nframe=  350 fps=1.4 q=44.0 size=     512KiB time=00:00:02.90 bitrate=1446.4kbits/s speed=0.0113x elapsed=0:04:17.57    \nframe=  352 fps=1.4 q=50.5 size=     512KiB time=00:00:02.91 bitrate=1438.2kbits/s speed=0.0113x elapsed=0:04:18.08    \nframe=  353 fps=1.4 q=43.9 size=     512KiB time=00:00:02.92 bitrate=1434.1kbits/s speed=0.0113x elapsed=0:04:18.59    \nframe=  354 fps=1.4 q=47.9 size=     512KiB time=00:00:02.93 bitrate=1430.0kbits/s speed=0.0113x elapsed=0:04:19.12    \nframe=  354 fps=1.4 q=47.9 size=     512KiB time=00:00:02.93 bitrate=1430.0kbits/s speed=0.0113x elapsed=0:04:19.64    \nframe=  356 fps=1.4 q=43.8 size=     512KiB time=00:00:02.95 bitrate=1421.9kbits/s speed=0.0113x elapsed=0:04:20.15    \nframe=  356 fps=1.4 q=43.8 size=     512KiB time=00:00:02.95 bitrate=1421.9kbits/s speed=0.0113x elapsed=0:04:20.66    \nframe=  357 fps=1.4 q=47.8 size=     512KiB time=00:00:02.95 bitrate=1417.9kbits/s speed=0.0113x elapsed=0:04:21.19    \nframe=  358 fps=1.4 q=49.6 size=     512KiB time=00:00:02.96 bitrate=1413.9kbits/s speed=0.0113x elapsed=0:04:21.72    \nframe=  358 fps=1.4 q=49.6 size=     512KiB time=00:00:02.96 bitrate=1413.9kbits/s speed=0.0113x elapsed=0:04:22.24    \nframe=  359 fps=1.4 q=43.6 size=     512KiB time=00:00:02.97 bitrate=1410.0kbits/s speed=0.0113x elapsed=0:04:22.76    \nframe=  360 fps=1.4 q=46.9 size=     512KiB time=00:00:02.98 bitrate=1406.0kbits/s speed=0.0113x elapsed=0:04:23.29    \nframe=  360 fps=1.4 q=46.9 size=     512KiB time=00:00:02.98 bitrate=1406.0kbits/s speed=0.0113x elapsed=0:04:23.80    \nframe=  362 fps=1.4 q=49.3 size=     512KiB time=00:00:03.00 bitrate=1398.2kbits/s speed=0.0113x elapsed=0:04:24.33    \nframe=  362 fps=1.4 q=49.3 size=     512KiB time=00:00:03.00 bitrate=1398.2kbits/s speed=0.0113x elapsed=0:04:24.86    \nframe=  363 fps=1.4 q=43.8 size=     512KiB time=00:00:03.00 bitrate=1394.3kbits/s speed=0.0113x elapsed=0:04:25.37    \nframe=  363 fps=1.4 q=43.8 size=     512KiB time=00:00:03.00 bitrate=1394.3kbits/s speed=0.0113x elapsed=0:04:25.89    \nframe=  364 fps=1.4 q=46.8 size=     512KiB time=00:00:03.01 bitrate=1390.5kbits/s speed=0.0113x elapsed=0:04:26.42    \nframe=  365 fps=1.4 q=49.0 size=     512KiB time=00:00:03.02 bitrate=1386.7kbits/s speed=0.0113x elapsed=0:04:26.94    \nframe=  366 fps=1.4 q=48.9 size=     512KiB time=00:00:03.03 bitrate=1382.9kbits/s speed=0.0113x elapsed=0:04:27.45    \nframe=  366 fps=1.4 q=48.9 size=     512KiB time=00:00:03.03 bitrate=1382.9kbits/s speed=0.0113x elapsed=0:04:27.97    \nframe=  367 fps=1.4 q=43.7 size=     512KiB time=00:00:03.04 bitrate=1379.1kbits/s speed=0.0113x elapsed=0:04:28.49    \nframe=  368 fps=1.4 q=46.6 size=     512KiB time=00:00:03.05 bitrate=1375.3kbits/s speed=0.0113x elapsed=0:04:29.01    \nframe=  368 fps=1.4 q=46.6 size=     512KiB time=00:00:03.05 bitrate=1375.3kbits/s speed=0.0113x elapsed=0:04:29.53    \nframe=  369 fps=1.4 q=48.6 size=     512KiB time=00:00:03.05 bitrate=1371.5kbits/s speed=0.0113x elapsed=0:04:30.05    \nframe=  371 fps=1.4 q=43.9 size=     512KiB time=00:00:03.07 bitrate=1364.1kbits/s speed=0.0114x elapsed=0:04:30.58    \nframe=  372 fps=1.4 q=46.8 size=     512KiB time=00:00:03.08 bitrate=1360.4kbits/s speed=0.0114x elapsed=0:04:31.10    \nframe=  373 fps=1.4 q=49.0 size=     512KiB time=00:00:03.09 bitrate=1356.8kbits/s speed=0.0114x elapsed=0:04:31.63    \nframe=  373 fps=1.4 q=49.0 size=     512KiB time=00:00:03.09 bitrate=1356.8kbits/s speed=0.0114x elapsed=0:04:32.14    \nframe=  374 fps=1.4 q=49.5 size=     512KiB time=00:00:03.10 bitrate=1353.1kbits/s speed=0.0114x elapsed=0:04:32.66    \nframe=  374 fps=1.4 q=49.5 size=     512KiB time=00:00:03.10 bitrate=1353.1kbits/s speed=0.0113x elapsed=0:04:33.18    \nframe=  375 fps=1.4 q=44.1 size=     512KiB time=00:00:03.10 bitrate=1349.5kbits/s speed=0.0114x elapsed=0:04:33.70    \nframe=  375 fps=1.4 q=44.1 size=     512KiB time=00:00:03.10 bitrate=1349.5kbits/s speed=0.0113x elapsed=0:04:34.23    \nframe=  376 fps=1.4 q=47.4 size=     512KiB time=00:00:03.11 bitrate=1345.9kbits/s speed=0.0113x elapsed=0:04:34.75    \nframe=  377 fps=1.4 q=49.2 size=     512KiB time=00:00:03.12 bitrate=1342.3kbits/s speed=0.0114x elapsed=0:04:35.28    \nframe=  377 fps=1.4 q=49.2 size=     512KiB time=00:00:03.12 bitrate=1342.3kbits/s speed=0.0113x elapsed=0:04:35.80    \nframe=  378 fps=1.4 q=43.9 size=     512KiB time=00:00:03.13 bitrate=1338.7kbits/s speed=0.0113x elapsed=0:04:36.33    \nframe=  378 fps=1.4 q=43.9 size=     512KiB time=00:00:03.13 bitrate=1338.7kbits/s speed=0.0113x elapsed=0:04:36.86    \nframe=  379 fps=1.4 q=47.4 size=     512KiB time=00:00:03.14 bitrate=1335.2kbits/s speed=0.0113x elapsed=0:04:37.38    \nframe=  380 fps=1.4 q=49.1 size=     512KiB time=00:00:03.15 bitrate=1331.6kbits/s speed=0.0113x elapsed=0:04:37.90    \nframe=  380 fps=1.4 q=49.1 size=     512KiB time=00:00:03.15 bitrate=1331.6kbits/s speed=0.0113x elapsed=0:04:38.41    \nframe=  380 fps=1.4 q=49.1 size=     512KiB time=00:00:03.15 bitrate=1331.6kbits/s speed=0.0113x elapsed=0:04:38.94    \nframe=  381 fps=1.4 q=43.7 size=     512KiB time=00:00:03.15 bitrate=1328.1kbits/s speed=0.0113x elapsed=0:04:39.46    \nframe=  382 fps=1.4 q=47.6 size=     512KiB time=00:00:03.16 bitrate=1324.6kbits/s speed=0.0113x elapsed=0:04:39.96    \nframe=  383 fps=1.4 q=49.5 size=     512KiB time=00:00:03.17 bitrate=1321.2kbits/s speed=0.0113x elapsed=0:04:40.48    \nframe=  385 fps=1.4 q=46.7 size=     512KiB time=00:00:03.19 bitrate=1314.3kbits/s speed=0.0114x elapsed=0:04:41.00    \nframe=  386 fps=1.4 q=49.1 size=     512KiB time=00:00:03.20 bitrate=1310.8kbits/s speed=0.0114x elapsed=0:04:41.52    \nframe=  387 fps=1.4 q=49.3 size=     512KiB time=00:00:03.20 bitrate=1307.4kbits/s speed=0.0114x elapsed=0:04:42.03    \nframe=  389 fps=1.4 q=47.3 size=     512KiB time=00:00:03.22 bitrate=1300.7kbits/s speed=0.0114x elapsed=0:04:42.55    \nframe=  390 fps=1.4 q=49.2 size=     512KiB time=00:00:03.23 bitrate=1297.3kbits/s speed=0.0114x elapsed=0:04:43.08    \nframe=  391 fps=1.4 q=43.7 size=     512KiB time=00:00:03.24 bitrate=1294.0kbits/s speed=0.0114x elapsed=0:04:43.58    \nframe=  393 fps=1.4 q=43.7 size=     512KiB time=00:00:03.25 bitrate=1287.4kbits/s speed=0.0115x elapsed=0:04:44.10    \nframe=  394 fps=1.4 q=46.7 size=     512KiB time=00:00:03.26 bitrate=1284.1kbits/s speed=0.0115x elapsed=0:04:44.63    \nframe=  395 fps=1.4 q=49.0 size=     512KiB time=00:00:03.27 bitrate=1280.8kbits/s speed=0.0115x elapsed=0:04:45.14    \nframe=  396 fps=1.4 q=43.7 size=     512KiB time=00:00:03.28 bitrate=1277.6kbits/s speed=0.0115x elapsed=0:04:45.66    \nframe=  398 fps=1.4 q=48.9 size=     512KiB time=00:00:03.30 bitrate=1271.1kbits/s speed=0.0115x elapsed=0:04:46.17    \nframe=  399 fps=1.4 q=43.9 size=     512KiB time=00:00:03.30 bitrate=1267.9kbits/s speed=0.0115x elapsed=0:04:46.69    \nframe=  401 fps=1.4 q=49.0 size=     512KiB time=00:00:03.32 bitrate=1261.6kbits/s speed=0.0116x elapsed=0:04:47.20    \nframe=  401 fps=1.4 q=49.0 size=     512KiB time=00:00:03.32 bitrate=1261.6kbits/s speed=0.0116x elapsed=0:04:47.71    \nframe=  402 fps=1.4 q=48.3 size=     512KiB time=00:00:03.33 bitrate=1258.4kbits/s speed=0.0116x elapsed=0:04:48.23    \nframe=  404 fps=1.4 q=46.4 size=     512KiB time=00:00:03.35 bitrate=1252.1kbits/s speed=0.0116x elapsed=0:04:48.75    \nframe=  405 fps=1.4 q=49.1 size=     512KiB time=00:00:03.35 bitrate=1249.0kbits/s speed=0.0116x elapsed=0:04:49.26    \nframe=  407 fps=1.4 q=46.0 size=     512KiB time=00:00:03.37 bitrate=1242.9kbits/s speed=0.0116x elapsed=0:04:49.78    \nframe=  408 fps=1.4 q=48.8 size=     512KiB time=00:00:03.38 bitrate=1239.8kbits/s speed=0.0117x elapsed=0:04:50.30    \nframe=  408 fps=1.4 q=48.8 size=     512KiB time=00:00:03.38 bitrate=1239.8kbits/s speed=0.0116x elapsed=0:04:50.81    \nframe=  409 fps=1.4 q=48.7 size=     512KiB time=00:00:03.39 bitrate=1236.8kbits/s speed=0.0116x elapsed=0:04:51.32    \nframe=  411 fps=1.4 q=46.6 size=     512KiB time=00:00:03.40 bitrate=1230.7kbits/s speed=0.0117x elapsed=0:04:51.85    \nframe=  412 fps=1.4 q=48.7 size=     512KiB time=00:00:03.41 bitrate=1227.7kbits/s speed=0.0117x elapsed=0:04:52.37    \nframe=  413 fps=1.4 q=44.4 size=     512KiB time=00:00:03.42 bitrate=1224.7kbits/s speed=0.0117x elapsed=0:04:52.89    \nframe=  414 fps=1.4 q=46.9 size=     512KiB time=00:00:03.43 bitrate=1221.7kbits/s speed=0.0117x elapsed=0:04:53.41    \nframe=  415 fps=1.4 q=48.6 size=     512KiB time=00:00:03.44 bitrate=1218.8kbits/s speed=0.0117x elapsed=0:04:53.92    \nframe=  417 fps=1.4 q=46.9 size=     512KiB time=00:00:03.45 bitrate=1212.9kbits/s speed=0.0117x elapsed=0:04:54.44    \nframe=  417 fps=1.4 q=46.9 size=     512KiB time=00:00:03.45 bitrate=1212.9kbits/s speed=0.0117x elapsed=0:04:54.96    \nframe=  418 fps=1.4 q=49.5 size=     512KiB time=00:00:03.46 bitrate=1210.0kbits/s speed=0.0117x elapsed=0:04:55.46    \nframe=  420 fps=1.4 q=46.1 size=     512KiB time=00:00:03.48 bitrate=1204.2kbits/s speed=0.0118x elapsed=0:04:55.98    \nframe=  421 fps=1.4 q=48.4 size=     512KiB time=00:00:03.49 bitrate=1201.3kbits/s speed=0.0118x elapsed=0:04:56.50    \nframe=  422 fps=1.4 q=43.6 size=     512KiB time=00:00:03.50 bitrate=1198.5kbits/s speed=0.0118x elapsed=0:04:57.02    \nframe=  423 fps=1.4 q=46.3 size=     512KiB time=00:00:03.50 bitrate=1195.6kbits/s speed=0.0118x elapsed=0:04:57.53    \nframe=  424 fps=1.4 q=48.3 size=     512KiB time=00:00:03.51 bitrate=1192.8kbits/s speed=0.0118x elapsed=0:04:58.04    \nframe=  425 fps=1.4 q=43.7 size=     512KiB time=00:00:03.52 bitrate=1190.0kbits/s speed=0.0118x elapsed=0:04:58.56    \nframe=  426 fps=1.4 q=46.3 size=     512KiB time=00:00:03.53 bitrate=1187.2kbits/s speed=0.0118x elapsed=0:04:59.07    \nframe=  428 fps=1.4 q=43.5 size=     512KiB time=00:00:03.55 bitrate=1181.6kbits/s speed=0.0118x elapsed=0:04:59.59    \nframe=  429 fps=1.4 q=46.3 size=     512KiB time=00:00:03.55 bitrate=1178.8kbits/s speed=0.0119x elapsed=0:05:00.11    \nframe=  430 fps=1.4 q=48.0 size=     512KiB time=00:00:03.56 bitrate=1176.1kbits/s speed=0.0119x elapsed=0:05:00.62    \nframe=  431 fps=1.4 q=43.9 size=     512KiB time=00:00:03.57 bitrate=1173.3kbits/s speed=0.0119x elapsed=0:05:01.14    \nframe=  432 fps=1.4 q=46.6 size=     512KiB time=00:00:03.58 bitrate=1170.6kbits/s speed=0.0119x elapsed=0:05:01.66    \nframe=  433 fps=1.4 q=48.3 size=     512KiB time=00:00:03.59 bitrate=1167.9kbits/s speed=0.0119x elapsed=0:05:02.17    \nframe=  435 fps=1.4 q=46.4 size=     512KiB time=00:00:03.60 bitrate=1162.5kbits/s speed=0.0119x elapsed=0:05:02.68    \nframe=  436 fps=1.4 q=48.4 size=     512KiB time=00:00:03.61 bitrate=1159.8kbits/s speed=0.0119x elapsed=0:05:03.21    \nframe=  437 fps=1.4 q=48.1 size=     512KiB time=00:00:03.62 bitrate=1157.1kbits/s speed=0.0119x elapsed=0:05:03.71    \nframe=  438 fps=1.4 q=43.4 size=     512KiB time=00:00:03.63 bitrate=1154.5kbits/s speed=0.0119x elapsed=0:05:04.23    \nframe=  439 fps=1.4 q=47.1 size=     512KiB time=00:00:03.64 bitrate=1151.9kbits/s speed=0.0119x elapsed=0:05:04.75    \nframe=  440 fps=1.4 q=48.5 size=     512KiB time=00:00:03.65 bitrate=1149.2kbits/s speed=0.012x elapsed=0:05:05.27    \nframe=  441 fps=1.4 q=43.6 size=     512KiB time=00:00:03.65 bitrate=1146.6kbits/s speed=0.012x elapsed=0:05:05.78    \nframe=  443 fps=1.4 q=48.3 size=     512KiB time=00:00:03.67 bitrate=1141.4kbits/s speed=0.012x elapsed=0:05:06.30    \nframe=  444 fps=1.4 q=43.3 size=     512KiB time=00:00:03.68 bitrate=1138.8kbits/s speed=0.012x elapsed=0:05:06.82    \nframe=  445 fps=1.4 q=46.8 size=     512KiB time=00:00:03.69 bitrate=1136.2kbits/s speed=0.012x elapsed=0:05:07.35    \nframe=  446 fps=1.4 q=48.1 size=     512KiB time=00:00:03.70 bitrate=1133.7kbits/s speed=0.012x elapsed=0:05:07.87    \nframe=  447 fps=1.4 q=43.6 size=     512KiB time=00:00:03.70 bitrate=1131.1kbits/s speed=0.012x elapsed=0:05:08.39    \nframe=  448 fps=1.5 q=46.8 size=     512KiB time=00:00:03.71 bitrate=1128.6kbits/s speed=0.012x elapsed=0:05:08.91    \nframe=  449 fps=1.5 q=48.2 size=     512KiB time=00:00:03.72 bitrate=1126.1kbits/s speed=0.012x elapsed=0:05:09.42    \nframe=  450 fps=1.5 q=43.6 size=     512KiB time=00:00:03.73 bitrate=1123.6kbits/s speed=0.012x elapsed=0:05:09.93    \nframe=  452 fps=1.5 q=48.2 size=     512KiB time=00:00:03.75 bitrate=1118.6kbits/s speed=0.0121x elapsed=0:05:10.45    \nframe=  453 fps=1.5 q=43.3 size=     512KiB time=00:00:03.75 bitrate=1116.1kbits/s speed=0.0121x elapsed=0:05:10.97    \nframe=  454 fps=1.5 q=46.5 size=     512KiB time=00:00:03.76 bitrate=1113.6kbits/s speed=0.0121x elapsed=0:05:11.49    \nframe=  455 fps=1.5 q=48.1 size=     512KiB time=00:00:03.77 bitrate=1111.2kbits/s speed=0.0121x elapsed=0:05:11.99    \nframe=  456 fps=1.5 q=43.6 size=     512KiB time=00:00:03.78 bitrate=1108.7kbits/s speed=0.0121x elapsed=0:05:12.51    \nframe=  457 fps=1.5 q=46.5 size=     512KiB time=00:00:03.79 bitrate=1106.3kbits/s speed=0.0121x elapsed=0:05:13.03    \nframe=  458 fps=1.5 q=47.9 size=     512KiB time=00:00:03.80 bitrate=1103.9kbits/s speed=0.0121x elapsed=0:05:13.54    \nframe=  460 fps=1.5 q=46.3 size=     512KiB time=00:00:03.81 bitrate=1099.0kbits/s speed=0.0122x elapsed=0:05:14.06    \nframe=  461 fps=1.5 q=48.0 size=     512KiB time=00:00:03.82 bitrate=1096.6kbits/s speed=0.0122x elapsed=0:05:14.58    \nframe=  462 fps=1.5 q=48.0 size=     512KiB time=00:00:03.83 bitrate=1094.3kbits/s speed=0.0122x elapsed=0:05:15.09    \nframe=  464 fps=1.5 q=46.7 size=     512KiB time=00:00:03.85 bitrate=1089.5kbits/s speed=0.0122x elapsed=0:05:15.61    \nframe=  464 fps=1.5 q=46.7 size=     512KiB time=00:00:03.85 bitrate=1089.5kbits/s speed=0.0122x elapsed=0:05:16.13    \nframe=  466 fps=1.5 q=43.2 size=     512KiB time=00:00:03.86 bitrate=1084.8kbits/s speed=0.0122x elapsed=0:05:16.64    \nframe=  467 fps=1.5 q=46.7 size=     512KiB time=00:00:03.87 bitrate=1082.5kbits/s speed=0.0122x elapsed=0:05:17.15    \nframe=  468 fps=1.5 q=48.3 size=     512KiB time=00:00:03.88 bitrate=1080.2kbits/s speed=0.0122x elapsed=0:05:17.67    \nframe=  469 fps=1.5 q=43.3 size=     512KiB time=00:00:03.89 bitrate=1077.9kbits/s speed=0.0122x elapsed=0:05:18.19    \nframe=  471 fps=1.5 q=48.1 size=     512KiB time=00:00:03.90 bitrate=1073.3kbits/s speed=0.0123x elapsed=0:05:18.71    \nframe=  472 fps=1.5 q=43.3 size=     512KiB time=00:00:03.91 bitrate=1071.0kbits/s speed=0.0123x elapsed=0:05:19.22    \nframe=  473 fps=1.5 q=46.1 size=     512KiB time=00:00:03.92 bitrate=1068.7kbits/s speed=0.0123x elapsed=0:05:19.73    \nframe=  474 fps=1.5 q=48.2 size=     512KiB time=00:00:03.93 bitrate=1066.4kbits/s speed=0.0123x elapsed=0:05:20.24    \nframe=  475 fps=1.5 q=43.8 size=     512KiB time=00:00:03.94 bitrate=1064.2kbits/s speed=0.0123x elapsed=0:05:20.76    \nframe=  477 fps=1.5 q=47.8 size=     512KiB time=00:00:03.95 bitrate=1059.7kbits/s speed=0.0123x elapsed=0:05:21.28    \nframe=  478 fps=1.5 q=43.3 size=     512KiB time=00:00:03.96 bitrate=1057.5kbits/s speed=0.0123x elapsed=0:05:21.80    \nframe=  479 fps=1.5 q=46.2 size=     512KiB time=00:00:03.97 bitrate=1055.3kbits/s speed=0.0123x elapsed=0:05:22.30    \nframe=  481 fps=1.5 q=42.8 size=     512KiB time=00:00:03.99 bitrate=1050.9kbits/s speed=0.0124x elapsed=0:05:22.83    \nframe=  482 fps=1.5 q=45.9 size=     512KiB time=00:00:04.00 bitrate=1048.7kbits/s speed=0.0124x elapsed=0:05:23.34    \nframe=  484 fps=1.5 q=43.2 size=     512KiB time=00:00:04.01 bitrate=1044.3kbits/s speed=0.0124x elapsed=0:05:23.86    \nframe=  485 fps=1.5 q=45.9 size=     512KiB time=00:00:04.02 bitrate=1042.2kbits/s speed=0.0124x elapsed=0:05:24.39    \nframe=  487 fps=1.5 q=47.4 size=     512KiB time=00:00:04.04 bitrate=1037.9kbits/s speed=0.0124x elapsed=0:05:24.90    \nframe=  488 fps=1.5 q=43.8 size=     512KiB time=00:00:04.05 bitrate=1035.7kbits/s speed=0.0124x elapsed=0:05:25.42    \nframe=  489 fps=1.5 q=46.3 size=     512KiB time=00:00:04.05 bitrate=1033.6kbits/s speed=0.0125x elapsed=0:05:25.93    \nframe=  490 fps=1.5 q=47.4 size=     512KiB time=00:00:04.06 bitrate=1031.5kbits/s speed=0.0125x elapsed=0:05:26.44    \nframe=  491 fps=1.5 q=43.3 size=     512KiB time=00:00:04.07 bitrate=1029.4kbits/s speed=0.0125x elapsed=0:05:26.96    \nframe=  493 fps=1.5 q=47.8 size=     512KiB time=00:00:04.09 bitrate=1025.2kbits/s speed=0.0125x elapsed=0:05:27.48    \nframe=  494 fps=1.5 q=43.4 size=     512KiB time=00:00:04.10 bitrate=1023.1kbits/s speed=0.0125x elapsed=0:05:28.00    \nframe=  496 fps=1.5 q=47.5 size=     512KiB time=00:00:04.11 bitrate=1018.9kbits/s speed=0.0125x elapsed=0:05:28.53    \nframe=  497 fps=1.5 q=42.5 size=     512KiB time=00:00:04.12 bitrate=1016.9kbits/s speed=0.0125x elapsed=0:05:29.04    \nframe=  499 fps=1.5 q=47.5 size=     512KiB time=00:00:04.14 bitrate=1012.8kbits/s speed=0.0126x elapsed=0:05:29.56    \nframe=  500 fps=1.5 q=41.2 size=     512KiB time=00:00:04.15 bitrate=1010.8kbits/s speed=0.0126x elapsed=0:05:30.08    \nframe=  502 fps=1.5 q=42.6 size=     512KiB time=00:00:04.16 bitrate=1006.7kbits/s speed=0.0126x elapsed=0:05:30.59    \nframe=  503 fps=1.5 q=46.2 size=     512KiB time=00:00:04.17 bitrate=1004.7kbits/s speed=0.0126x elapsed=0:05:31.10    \nframe=  504 fps=1.5 q=47.7 size=     512KiB time=00:00:04.18 bitrate=1002.7kbits/s speed=0.0126x elapsed=0:05:31.62    \nframe=  505 fps=1.5 q=42.5 size=     768KiB time=00:00:04.19 bitrate=1501.0kbits/s speed=0.0126x elapsed=0:05:32.14    \nframe=  506 fps=1.5 q=45.5 size=     768KiB time=00:00:04.20 bitrate=1498.0kbits/s speed=0.0126x elapsed=0:05:32.65    \nframe=  508 fps=1.5 q=47.1 size=     768KiB time=00:00:04.21 bitrate=1492.1kbits/s speed=0.0127x elapsed=0:05:33.17    \nframe=  509 fps=1.5 q=43.1 size=     768KiB time=00:00:04.22 bitrate=1489.2kbits/s speed=0.0127x elapsed=0:05:33.68    \nframe=  510 fps=1.5 q=45.8 size=     768KiB time=00:00:04.23 bitrate=1486.3kbits/s speed=0.0127x elapsed=0:05:34.21    \nframe=  511 fps=1.5 q=47.5 size=     768KiB time=00:00:04.24 bitrate=1483.3kbits/s speed=0.0127x elapsed=0:05:34.71    \nframe=  513 fps=1.5 q=45.3 size=     768KiB time=00:00:04.25 bitrate=1477.5kbits/s speed=0.0127x elapsed=0:05:35.24    \nframe=  514 fps=1.5 q=47.2 size=     768KiB time=00:00:04.26 bitrate=1474.6kbits/s speed=0.0127x elapsed=0:05:35.74    \nframe=  515 fps=1.5 q=47.5 size=     768KiB time=00:00:04.27 bitrate=1471.8kbits/s speed=0.0127x elapsed=0:05:36.26    \nframe=  517 fps=1.5 q=46.3 size=     768KiB time=00:00:04.29 bitrate=1466.1kbits/s speed=0.0127x elapsed=0:05:36.78    \nframe=  518 fps=1.5 q=47.5 size=     768KiB time=00:00:04.30 bitrate=1463.2kbits/s speed=0.0127x elapsed=0:05:37.30    \nframe=  519 fps=1.5 q=42.8 size=     768KiB time=00:00:04.30 bitrate=1460.4kbits/s speed=0.0128x elapsed=0:05:37.81    \nframe=  520 fps=1.5 q=45.7 size=     768KiB time=00:00:04.31 bitrate=1457.6kbits/s speed=0.0128x elapsed=0:05:38.32    \nframe=  521 fps=1.5 q=46.6 size=     768KiB time=00:00:04.32 bitrate=1454.8kbits/s speed=0.0128x elapsed=0:05:38.84    \nframe=  522 fps=1.5 q=42.6 size=     768KiB time=00:00:04.33 bitrate=1452.0kbits/s speed=0.0128x elapsed=0:05:39.35    \nframe=  524 fps=1.5 q=46.4 size=     768KiB time=00:00:04.35 bitrate=1446.4kbits/s speed=0.0128x elapsed=0:05:39.87    \nframe=  526 fps=1.5 q=44.6 size=     768KiB time=00:00:04.36 bitrate=1440.9kbits/s speed=0.0128x elapsed=0:05:40.38    \nframe=  527 fps=1.5 q=46.3 size=     768KiB time=00:00:04.37 bitrate=1438.1kbits/s speed=0.0128x elapsed=0:05:40.90    \nframe=  528 fps=1.5 q=46.5 size=     768KiB time=00:00:04.38 bitrate=1435.4kbits/s speed=0.0128x elapsed=0:05:41.42    \nframe=  530 fps=1.5 q=44.7 size=     768KiB time=00:00:04.40 bitrate=1430.0kbits/s speed=0.0129x elapsed=0:05:41.93    \nframe=  531 fps=1.6 q=46.1 size=     768KiB time=00:00:04.40 bitrate=1427.3kbits/s speed=0.0129x elapsed=0:05:42.45    \nframe=  532 fps=1.6 q=45.4 size=     768KiB time=00:00:04.41 bitrate=1424.6kbits/s speed=0.0129x elapsed=0:05:42.96    \nframe=  534 fps=1.6 q=44.6 size=     768KiB time=00:00:04.43 bitrate=1419.2kbits/s speed=0.0129x elapsed=0:05:43.48    \nframe=  534 fps=1.6 q=44.6 size=     768KiB time=00:00:04.43 bitrate=1419.2kbits/s speed=0.0129x elapsed=0:05:44.00    \nframe=  536 fps=1.6 q=45.5 size=     768KiB time=00:00:04.45 bitrate=1413.9kbits/s speed=0.0129x elapsed=0:05:44.52    \nframe=  537 fps=1.6 q=42.1 size=     768KiB time=00:00:04.45 bitrate=1411.2kbits/s speed=0.0129x elapsed=0:05:45.03    \nframe=  538 fps=1.6 q=44.6 size=     768KiB time=00:00:04.46 bitrate=1408.6kbits/s speed=0.0129x elapsed=0:05:45.55    \nframe=  540 fps=1.6 q=45.5 size=     768KiB time=00:00:04.48 bitrate=1403.4kbits/s speed=0.013x elapsed=0:05:46.06    \nframe=  542 fps=1.6 q=44.5 size=     768KiB time=00:00:04.50 bitrate=1398.2kbits/s speed=0.013x elapsed=0:05:46.58    \nframe=  543 fps=1.6 q=45.4 size=     768KiB time=00:00:04.50 bitrate=1395.6kbits/s speed=0.013x elapsed=0:05:47.09    \nframe=  545 fps=1.6 q=44.1 size=     768KiB time=00:00:04.52 bitrate=1390.5kbits/s speed=0.013x elapsed=0:05:47.61    \nframe=  546 fps=1.6 q=44.4 size=     768KiB time=00:00:04.53 bitrate=1387.9kbits/s speed=0.013x elapsed=0:05:48.12    \nframe=  547 fps=1.6 q=44.6 size=     768KiB time=00:00:04.54 bitrate=1385.4kbits/s speed=0.013x elapsed=0:05:48.64    \nframe=  548 fps=1.6 q=44.6 size=     768KiB time=00:00:04.55 bitrate=1382.8kbits/s speed=0.013x elapsed=0:05:49.15    \nframe=  550 fps=1.6 q=43.8 size=     768KiB time=00:00:04.56 bitrate=1377.8kbits/s speed=0.0131x elapsed=0:05:49.67    \nframe=  551 fps=1.6 q=44.6 size=     768KiB time=00:00:04.57 bitrate=1375.3kbits/s speed=0.0131x elapsed=0:05:50.18    \nframe=  552 fps=1.6 q=44.6 size=     768KiB time=00:00:04.58 bitrate=1372.8kbits/s speed=0.0131x elapsed=0:05:50.70    \nframe=  553 fps=1.6 q=42.0 size=     768KiB time=00:00:04.59 bitrate=1370.3kbits/s speed=0.0131x elapsed=0:05:51.22    \nframe=  555 fps=1.6 q=45.3 size=     768KiB time=00:00:04.60 bitrate=1365.3kbits/s speed=0.0131x elapsed=0:05:51.73    \nframe=  556 fps=1.6 q=45.2 size=     768KiB time=00:00:04.61 bitrate=1362.8kbits/s speed=0.0131x elapsed=0:05:52.26    \nframe=  557 fps=1.6 q=44.5 size=     768KiB time=00:00:04.62 bitrate=1360.4kbits/s speed=0.0131x elapsed=0:05:52.77    \nframe=  559 fps=1.6 q=44.2 size=     768KiB time=00:00:04.64 bitrate=1355.5kbits/s speed=0.0131x elapsed=0:05:53.28    \nframe=  559 fps=1.6 q=44.2 size=     768KiB time=00:00:04.64 bitrate=1355.5kbits/s speed=0.0131x elapsed=0:05:53.80    \nframe=  561 fps=1.6 q=44.5 size=     768KiB time=00:00:04.65 bitrate=1350.7kbits/s speed=0.0131x elapsed=0:05:54.30    \nframe=  562 fps=1.6 q=41.5 size=     768KiB time=00:00:04.66 bitrate=1348.2kbits/s speed=0.0132x elapsed=0:05:54.83    \nframe=  563 fps=1.6 q=44.0 size=     768KiB time=00:00:04.67 bitrate=1345.8kbits/s speed=0.0132x elapsed=0:05:55.34    \nframe=  564 fps=1.6 q=45.3 size=     768KiB time=00:00:04.68 bitrate=1343.4kbits/s speed=0.0132x elapsed=0:05:55.86    \nframe=  566 fps=1.6 q=41.6 size=     768KiB time=00:00:04.70 bitrate=1338.7kbits/s speed=0.0132x elapsed=0:05:56.37    \nframe=  567 fps=1.6 q=44.1 size=     768KiB time=00:00:04.70 bitrate=1336.3kbits/s speed=0.0132x elapsed=0:05:56.89    \nframe=  568 fps=1.6 q=45.4 size=     768KiB time=00:00:04.71 bitrate=1334.0kbits/s speed=0.0132x elapsed=0:05:57.40    \nframe=  569 fps=1.6 q=45.3 size=     768KiB time=00:00:04.72 bitrate=1331.6kbits/s speed=0.0132x elapsed=0:05:57.92    \nframe=  571 fps=1.6 q=43.4 size=     768KiB time=00:00:04.74 bitrate=1326.9kbits/s speed=0.0132x elapsed=0:05:58.44    \nframe=  572 fps=1.6 q=45.4 size=     768KiB time=00:00:04.75 bitrate=1324.6kbits/s speed=0.0132x elapsed=0:05:58.95    \nframe=  573 fps=1.6 q=45.3 size=     768KiB time=00:00:04.75 bitrate=1322.3kbits/s speed=0.0132x elapsed=0:05:59.47    \nframe=  574 fps=1.6 q=41.7 size=     768KiB time=00:00:04.76 bitrate=1320.0kbits/s speed=0.0132x elapsed=0:05:59.98    \nframe=  575 fps=1.6 q=44.4 size=     768KiB time=00:00:04.77 bitrate=1317.7kbits/s speed=0.0132x elapsed=0:06:00.49    \nframe=  576 fps=1.6 q=45.6 size=     768KiB time=00:00:04.78 bitrate=1315.4kbits/s speed=0.0132x elapsed=0:06:01.01    \nframe=  578 fps=1.6 q=44.2 size=     768KiB time=00:00:04.80 bitrate=1310.8kbits/s speed=0.0133x elapsed=0:06:01.53    \nframe=  579 fps=1.6 q=45.7 size=     768KiB time=00:00:04.80 bitrate=1308.5kbits/s speed=0.0133x elapsed=0:06:02.04    \nframe=  579 fps=1.6 q=45.7 size=     768KiB time=00:00:04.80 bitrate=1308.5kbits/s speed=0.0133x elapsed=0:06:02.55    \nframe=  580 fps=1.6 q=46.3 size=     768KiB time=00:00:04.81 bitrate=1306.3kbits/s speed=0.0133x elapsed=0:06:03.07    \nframe=  582 fps=1.6 q=42.0 size=     768KiB time=00:00:04.83 bitrate=1301.8kbits/s speed=0.0133x elapsed=0:06:03.59    \nframe=  584 fps=1.6 q=46.4 size=     768KiB time=00:00:04.85 bitrate=1297.3kbits/s speed=0.0133x elapsed=0:06:04.11    \nframe=  584 fps=1.6 q=46.4 size=     768KiB time=00:00:04.85 bitrate=1297.3kbits/s speed=0.0133x elapsed=0:06:04.63    \nframe=  586 fps=1.6 q=46.2 size=     768KiB time=00:00:04.86 bitrate=1292.8kbits/s speed=0.0133x elapsed=0:06:05.14    \nframe=  587 fps=1.6 q=41.7 size=     768KiB time=00:00:04.87 bitrate=1290.6kbits/s speed=0.0133x elapsed=0:06:05.66    \nframe=  588 fps=1.6 q=44.9 size=     768KiB time=00:00:04.88 bitrate=1288.4kbits/s speed=0.0133x elapsed=0:06:06.16    \nframe=  589 fps=1.6 q=46.5 size=     768KiB time=00:00:04.89 bitrate=1286.2kbits/s speed=0.0133x elapsed=0:06:06.68    \nframe=  591 fps=1.6 q=44.7 size=     768KiB time=00:00:04.90 bitrate=1281.9kbits/s speed=0.0134x elapsed=0:06:07.20    \nframe=  592 fps=1.6 q=45.6 size=     768KiB time=00:00:04.91 bitrate=1279.7kbits/s speed=0.0134x elapsed=0:06:07.71    \nframe=  593 fps=1.6 q=45.6 size=     768KiB time=00:00:04.92 bitrate=1277.5kbits/s speed=0.0134x elapsed=0:06:08.23    \nframe=  594 fps=1.6 q=41.1 size=     768KiB time=00:00:04.93 bitrate=1275.4kbits/s speed=0.0134x elapsed=0:06:08.75    \nframe=  595 fps=1.6 q=45.6 size=     768KiB time=00:00:04.94 bitrate=1273.2kbits/s speed=0.0134x elapsed=0:06:09.26    \nframe=  596 fps=1.6 q=42.2 size=     768KiB time=00:00:04.95 bitrate=1271.1kbits/s speed=0.0134x elapsed=0:06:09.78    \nframe=  598 fps=1.6 q=45.4 size=     768KiB time=00:00:04.96 bitrate=1266.8kbits/s speed=0.0134x elapsed=0:06:10.29    \n[mp4 @ 000001f35bf09b80] Starting second pass: moving the moov atom to the beginning of the file\n[out#0/mp4 @ 000001f35bf09a80] video:907KiB audio:0KiB subtitle:0KiB other streams:0KiB global headers:2KiB muxing overhead: 1.188387%\nframe=  600 fps=1.6 q=45.5 Lsize=     918KiB time=00:00:04.98 bitrate=1509.5kbits/s speed=0.0134x elapsed=0:06:10.55    \nx265 [info]: frame I:      3, Avg QP:43.64  kb/s: 5892.80 \nx265 [info]: frame P:    165, Avg QP:42.20  kb/s: 3150.89 \nx265 [info]: frame B:    432, Avg QP:46.71  kb/s: 815.26  \nx265 [info]: Weighted P-Frames: Y:0.0% UV:0.0%\n\nencoded 600 frames in 370.40s (1.62 fps), 1482.95 kb/s, Avg QP:45.46\n",
  "seconds": 370.67207884788513,
  "probe_out": {}
}